<mxfile modified="2020-01-17T15:32:16.639Z" host="www.draw.io" agent="Mozilla/5.0 (X11; Ubuntu; Linux x86_64; rv:72.0) Gecko/20100101 Firefox/72.0" etag="DIhg7fhogscm61XseRRl" version="12.5.5" type="github" pages="5">
  <diagram id="C6oxlw6K0-z-IuQhJaiU" name="Page-1">
    <mxGraphModel dx="955" dy="805" grid="1" gridSize="10" guides="1" tooltips="1" connect="1" arrows="1" fold="1" page="1" pageScale="1" pageWidth="827" pageHeight="1169" math="0" shadow="0">
      <root>
        <mxCell id="0"/>
        <mxCell id="1" parent="0"/>
        <mxCell id="uZ4c3MgM9TKVwITnK00K-1" value="" style="whiteSpace=wrap;html=1;aspect=fixed;" parent="1" vertex="1">
          <mxGeometry x="280" y="200" width="120" height="120" as="geometry"/>
        </mxCell>
        <mxCell id="uZ4c3MgM9TKVwITnK00K-2" value="Core" style="text;html=1;strokeColor=none;fillColor=none;align=center;verticalAlign=middle;whiteSpace=wrap;rounded=0;" parent="1" vertex="1">
          <mxGeometry x="320" y="250" width="40" height="20" as="geometry"/>
        </mxCell>
        <mxCell id="uZ4c3MgM9TKVwITnK00K-3" value="" style="shape=hexagon;perimeter=hexagonPerimeter2;whiteSpace=wrap;html=1;" parent="1" vertex="1">
          <mxGeometry x="530" y="60" width="70" height="60" as="geometry"/>
        </mxCell>
        <mxCell id="uZ4c3MgM9TKVwITnK00K-4" value="&lt;div&gt;Monitor&lt;/div&gt;" style="text;html=1;strokeColor=none;fillColor=none;align=center;verticalAlign=middle;whiteSpace=wrap;rounded=0;" parent="1" vertex="1">
          <mxGeometry x="545" y="80" width="40" height="20" as="geometry"/>
        </mxCell>
        <mxCell id="uZ4c3MgM9TKVwITnK00K-7" value="" style="endArrow=classic;startArrow=classic;html=1;entryX=0.5;entryY=1;entryDx=0;entryDy=0;exitX=0.5;exitY=0;exitDx=0;exitDy=0;" parent="1" source="uZ4c3MgM9TKVwITnK00K-8" target="uZ4c3MgM9TKVwITnK00K-1" edge="1">
          <mxGeometry width="50" height="50" relative="1" as="geometry">
            <mxPoint x="340" y="520" as="sourcePoint"/>
            <mxPoint x="330" y="340" as="targetPoint"/>
          </mxGeometry>
        </mxCell>
        <mxCell id="uZ4c3MgM9TKVwITnK00K-8" value="" style="rounded=1;whiteSpace=wrap;html=1;" parent="1" vertex="1">
          <mxGeometry x="220" y="530" width="240" height="90" as="geometry"/>
        </mxCell>
        <mxCell id="uZ4c3MgM9TKVwITnK00K-9" value="Bus" style="text;html=1;strokeColor=none;fillColor=none;align=center;verticalAlign=middle;whiteSpace=wrap;rounded=0;" parent="1" vertex="1">
          <mxGeometry x="340" y="400" width="40" height="20" as="geometry"/>
        </mxCell>
        <mxCell id="uZ4c3MgM9TKVwITnK00K-10" value="&lt;div&gt;Tutti gli altri componenti e componenti esterni&lt;/div&gt;" style="text;html=1;strokeColor=none;fillColor=none;align=center;verticalAlign=middle;whiteSpace=wrap;rounded=0;" parent="1" vertex="1">
          <mxGeometry x="230" y="565" width="210" height="20" as="geometry"/>
        </mxCell>
        <mxCell id="uZ4c3MgM9TKVwITnK00K-11" value="" style="endArrow=classic;html=1;exitX=0;exitY=0.5;exitDx=0;exitDy=0;entryX=0.5;entryY=0;entryDx=0;entryDy=0;" parent="1" source="uZ4c3MgM9TKVwITnK00K-3" target="uZ4c3MgM9TKVwITnK00K-1" edge="1">
          <mxGeometry width="50" height="50" relative="1" as="geometry">
            <mxPoint x="220" y="690" as="sourcePoint"/>
            <mxPoint x="270" y="640" as="targetPoint"/>
          </mxGeometry>
        </mxCell>
        <mxCell id="uZ4c3MgM9TKVwITnK00K-12" value="world switch: secure world, normal world" style="text;html=1;strokeColor=none;fillColor=none;align=center;verticalAlign=middle;whiteSpace=wrap;rounded=0;" parent="1" vertex="1">
          <mxGeometry x="460" y="130" width="250" height="20" as="geometry"/>
        </mxCell>
        <mxCell id="uZ4c3MgM9TKVwITnK00K-13" value="" style="triangle;whiteSpace=wrap;html=1;" parent="1" vertex="1">
          <mxGeometry x="475" y="212" width="110" height="110" as="geometry"/>
        </mxCell>
        <mxCell id="uZ4c3MgM9TKVwITnK00K-15" value="&lt;div&gt;Accesso alla&lt;/div&gt;&lt;div&gt; memoria&lt;/div&gt;" style="text;html=1;align=center;" parent="1" vertex="1">
          <mxGeometry x="475" y="247" width="80" height="50" as="geometry"/>
        </mxCell>
        <mxCell id="uZ4c3MgM9TKVwITnK00K-18" value="" style="endArrow=classic;startArrow=classic;html=1;entryX=0;entryY=0.25;entryDx=0;entryDy=0;exitX=1;exitY=0.5;exitDx=0;exitDy=0;" parent="1" source="uZ4c3MgM9TKVwITnK00K-1" target="uZ4c3MgM9TKVwITnK00K-15" edge="1">
          <mxGeometry width="50" height="50" relative="1" as="geometry">
            <mxPoint x="410" y="365" as="sourcePoint"/>
            <mxPoint x="460" y="315" as="targetPoint"/>
          </mxGeometry>
        </mxCell>
        <mxCell id="uZ4c3MgM9TKVwITnK00K-25" value="" style="shape=process;whiteSpace=wrap;html=1;backgroundOutline=1;align=center;" parent="1" vertex="1">
          <mxGeometry x="220" y="640" width="120" height="60" as="geometry"/>
        </mxCell>
        <mxCell id="uZ4c3MgM9TKVwITnK00K-26" value="&lt;h1&gt;Normal World&lt;br&gt;&lt;/h1&gt;&lt;p&gt;durante l&#39;esecizione in normal world non si può accedere alla memoria e ai dispositivi riservati alla esecuzione sicura,&lt;br&gt;&lt;/p&gt;" style="text;html=1;strokeColor=none;fillColor=none;spacing=5;spacingTop=-20;whiteSpace=wrap;overflow=hidden;rounded=0;align=center;" parent="1" vertex="1">
          <mxGeometry x="545" y="322" width="190" height="120" as="geometry"/>
        </mxCell>
        <mxCell id="uZ4c3MgM9TKVwITnK00K-27" value="&lt;h1&gt;Secure World&lt;br&gt;&lt;/h1&gt;&lt;p&gt;si può accedere a tutto&lt;br&gt;&lt;/p&gt;" style="text;html=1;strokeColor=none;fillColor=none;spacing=5;spacingTop=-20;whiteSpace=wrap;overflow=hidden;rounded=0;align=center;" parent="1" vertex="1">
          <mxGeometry x="555" y="445" width="190" height="120" as="geometry"/>
        </mxCell>
      </root>
    </mxGraphModel>
  </diagram>
  <diagram id="wvh9Acg9qno2JorV6FW3" name="Page-2">
    <mxGraphModel dx="1422" dy="747" grid="1" gridSize="10" guides="1" tooltips="1" connect="1" arrows="1" fold="1" page="1" pageScale="1" pageWidth="1169" pageHeight="827" math="0" shadow="0">
      <root>
        <mxCell id="MMfHTszjSWBwwRF4vD4u-0"/>
        <mxCell id="MMfHTszjSWBwwRF4vD4u-1" parent="MMfHTszjSWBwwRF4vD4u-0"/>
        <mxCell id="MMfHTszjSWBwwRF4vD4u-2" value="" style="rounded=0;whiteSpace=wrap;html=1;fillColor=none;dashed=1;strokeWidth=3;" parent="MMfHTszjSWBwwRF4vD4u-1" vertex="1">
          <mxGeometry x="23" y="31" width="960" height="530" as="geometry"/>
        </mxCell>
        <mxCell id="MMfHTszjSWBwwRF4vD4u-5" value="" style="rounded=0;whiteSpace=wrap;html=1;fillColor=none;dashed=1;strokeWidth=3;dashPattern=1 1;" parent="MMfHTszjSWBwwRF4vD4u-1" vertex="1">
          <mxGeometry x="63" y="67" width="190" height="324" as="geometry"/>
        </mxCell>
        <mxCell id="MMfHTszjSWBwwRF4vD4u-6" value="" style="rounded=0;whiteSpace=wrap;html=1;fillColor=none;dashed=1;strokeWidth=3;dashPattern=1 1;" parent="MMfHTszjSWBwwRF4vD4u-1" vertex="1">
          <mxGeometry x="293" y="67" width="190" height="324" as="geometry"/>
        </mxCell>
        <mxCell id="MMfHTszjSWBwwRF4vD4u-7" value="" style="rounded=0;whiteSpace=wrap;html=1;fillColor=none;dashed=1;strokeWidth=3;dashPattern=1 1;" parent="MMfHTszjSWBwwRF4vD4u-1" vertex="1">
          <mxGeometry x="523" y="67" width="190" height="324" as="geometry"/>
        </mxCell>
        <mxCell id="MMfHTszjSWBwwRF4vD4u-10" value="&lt;h1&gt;Core 0&lt;br&gt;&lt;/h1&gt;&lt;p&gt;Redundant service&lt;br&gt;&lt;/p&gt;" style="text;html=1;strokeColor=none;fillColor=none;spacing=5;spacingTop=-20;whiteSpace=wrap;overflow=hidden;rounded=0;dashed=1;" parent="MMfHTszjSWBwwRF4vD4u-1" vertex="1">
          <mxGeometry x="93" y="91" width="120" height="80" as="geometry"/>
        </mxCell>
        <mxCell id="MMfHTszjSWBwwRF4vD4u-11" value="&lt;h1&gt;Core 1&lt;/h1&gt;&lt;p&gt;Redundant service&lt;br&gt;&lt;/p&gt;" style="text;html=1;strokeColor=none;fillColor=none;spacing=5;spacingTop=-20;whiteSpace=wrap;overflow=hidden;rounded=0;dashed=1;" parent="MMfHTszjSWBwwRF4vD4u-1" vertex="1">
          <mxGeometry x="328" y="91" width="120" height="80" as="geometry"/>
        </mxCell>
        <mxCell id="MMfHTszjSWBwwRF4vD4u-12" value="&lt;h1&gt;Core 2&lt;br&gt;&lt;/h1&gt;&lt;p&gt;Main application&lt;/p&gt;" style="text;html=1;strokeColor=none;fillColor=none;spacing=5;spacingTop=-20;whiteSpace=wrap;overflow=hidden;rounded=0;dashed=1;" parent="MMfHTszjSWBwwRF4vD4u-1" vertex="1">
          <mxGeometry x="558" y="91" width="120" height="80" as="geometry"/>
        </mxCell>
        <mxCell id="MMfHTszjSWBwwRF4vD4u-13" value="Normal world" style="rounded=0;whiteSpace=wrap;html=1;strokeWidth=2;fillColor=none;strokeColor=#000000;" parent="MMfHTszjSWBwwRF4vD4u-1" vertex="1">
          <mxGeometry x="83" y="181" width="70" height="80" as="geometry"/>
        </mxCell>
        <mxCell id="MMfHTszjSWBwwRF4vD4u-14" value="Secure word" style="rounded=0;whiteSpace=wrap;html=1;strokeWidth=2;fillColor=none;strokeColor=#000000;" parent="MMfHTszjSWBwwRF4vD4u-1" vertex="1">
          <mxGeometry x="164" y="181" width="70" height="80" as="geometry"/>
        </mxCell>
        <mxCell id="MMfHTszjSWBwwRF4vD4u-22" value="Secure world" style="rounded=0;whiteSpace=wrap;html=1;strokeWidth=2;fillColor=none;strokeColor=#000000;" parent="MMfHTszjSWBwwRF4vD4u-1" vertex="1">
          <mxGeometry x="312" y="181" width="70" height="80" as="geometry"/>
        </mxCell>
        <mxCell id="MMfHTszjSWBwwRF4vD4u-23" value="Normal word" style="rounded=0;whiteSpace=wrap;html=1;strokeWidth=2;fillColor=none;strokeColor=#000000;" parent="MMfHTszjSWBwwRF4vD4u-1" vertex="1">
          <mxGeometry x="393" y="181" width="70" height="80" as="geometry"/>
        </mxCell>
        <mxCell id="MMfHTszjSWBwwRF4vD4u-24" value="Normal world" style="rounded=0;whiteSpace=wrap;html=1;strokeColor=#000000;strokeWidth=2;fillColor=none;" parent="MMfHTszjSWBwwRF4vD4u-1" vertex="1">
          <mxGeometry x="543" y="181" width="150" height="80" as="geometry"/>
        </mxCell>
        <mxCell id="MMfHTszjSWBwwRF4vD4u-25" value="Monitor" style="rounded=0;whiteSpace=wrap;html=1;strokeColor=#000000;strokeWidth=2;fillColor=none;" parent="MMfHTszjSWBwwRF4vD4u-1" vertex="1">
          <mxGeometry x="83" y="281" width="150" height="30" as="geometry"/>
        </mxCell>
        <mxCell id="MMfHTszjSWBwwRF4vD4u-26" value="Monitor" style="rounded=0;whiteSpace=wrap;html=1;strokeColor=#000000;strokeWidth=2;fillColor=none;" parent="MMfHTszjSWBwwRF4vD4u-1" vertex="1">
          <mxGeometry x="312" y="281" width="150" height="30" as="geometry"/>
        </mxCell>
        <mxCell id="MMfHTszjSWBwwRF4vD4u-27" value="&lt;strike&gt;Monitor&lt;/strike&gt;" style="rounded=0;whiteSpace=wrap;html=1;strokeColor=#666666;strokeWidth=2;fillColor=#f5f5f5;fontColor=#333333;" parent="MMfHTszjSWBwwRF4vD4u-1" vertex="1">
          <mxGeometry x="543" y="281" width="150" height="30" as="geometry"/>
        </mxCell>
        <mxCell id="MMfHTszjSWBwwRF4vD4u-28" value="L1 D" style="rounded=0;whiteSpace=wrap;html=1;strokeColor=#000000;strokeWidth=2;fillColor=none;" parent="MMfHTszjSWBwwRF4vD4u-1" vertex="1">
          <mxGeometry x="83" y="331" width="70" height="40" as="geometry"/>
        </mxCell>
        <mxCell id="MMfHTszjSWBwwRF4vD4u-29" value="L1 I" style="rounded=0;whiteSpace=wrap;html=1;strokeColor=#000000;strokeWidth=2;fillColor=none;" parent="MMfHTszjSWBwwRF4vD4u-1" vertex="1">
          <mxGeometry x="163" y="331" width="70" height="40" as="geometry"/>
        </mxCell>
        <mxCell id="MMfHTszjSWBwwRF4vD4u-30" value="L1 D" style="rounded=0;whiteSpace=wrap;html=1;strokeColor=#000000;strokeWidth=2;fillColor=none;" parent="MMfHTszjSWBwwRF4vD4u-1" vertex="1">
          <mxGeometry x="312" y="331" width="70" height="40" as="geometry"/>
        </mxCell>
        <mxCell id="MMfHTszjSWBwwRF4vD4u-31" value="L1 I" style="rounded=0;whiteSpace=wrap;html=1;strokeColor=#000000;strokeWidth=2;fillColor=none;" parent="MMfHTszjSWBwwRF4vD4u-1" vertex="1">
          <mxGeometry x="392" y="331" width="70" height="40" as="geometry"/>
        </mxCell>
        <mxCell id="MMfHTszjSWBwwRF4vD4u-32" value="L1 D" style="rounded=0;whiteSpace=wrap;html=1;strokeColor=#000000;strokeWidth=2;fillColor=none;" parent="MMfHTszjSWBwwRF4vD4u-1" vertex="1">
          <mxGeometry x="543" y="331" width="70" height="40" as="geometry"/>
        </mxCell>
        <mxCell id="MMfHTszjSWBwwRF4vD4u-33" value="L1 I" style="rounded=0;whiteSpace=wrap;html=1;strokeColor=#000000;strokeWidth=2;fillColor=none;" parent="MMfHTszjSWBwwRF4vD4u-1" vertex="1">
          <mxGeometry x="623" y="331" width="70" height="40" as="geometry"/>
        </mxCell>
        <mxCell id="MMfHTszjSWBwwRF4vD4u-36" value="Interrupt controller + Distributor" style="rounded=0;whiteSpace=wrap;html=1;strokeColor=#000000;strokeWidth=1;fillColor=none;" parent="MMfHTszjSWBwwRF4vD4u-1" vertex="1">
          <mxGeometry x="756" y="471" width="190" height="60" as="geometry"/>
        </mxCell>
        <mxCell id="MMfHTszjSWBwwRF4vD4u-37" value="" style="endArrow=classic;html=1;exitX=0.75;exitY=0;exitDx=0;exitDy=0;entryX=0.5;entryY=0;entryDx=0;entryDy=0;rounded=1;" parent="MMfHTszjSWBwwRF4vD4u-1" source="MMfHTszjSWBwwRF4vD4u-36" target="MMfHTszjSWBwwRF4vD4u-5" edge="1">
          <mxGeometry width="50" height="50" relative="1" as="geometry">
            <mxPoint x="393" y="641" as="sourcePoint"/>
            <mxPoint x="443" y="591" as="targetPoint"/>
            <Array as="points">
              <mxPoint x="899" y="441"/>
              <mxPoint x="963" y="441"/>
              <mxPoint x="963" y="41"/>
              <mxPoint x="158" y="41"/>
            </Array>
          </mxGeometry>
        </mxCell>
        <mxCell id="MMfHTszjSWBwwRF4vD4u-38" value="" style="endArrow=classic;html=1;entryX=0.5;entryY=0;entryDx=0;entryDy=0;" parent="MMfHTszjSWBwwRF4vD4u-1" target="MMfHTszjSWBwwRF4vD4u-6" edge="1">
          <mxGeometry width="50" height="50" relative="1" as="geometry">
            <mxPoint x="388" y="41" as="sourcePoint"/>
            <mxPoint x="73" y="571" as="targetPoint"/>
          </mxGeometry>
        </mxCell>
        <mxCell id="MMfHTszjSWBwwRF4vD4u-39" value="" style="endArrow=classic;html=1;entryX=0.5;entryY=0;entryDx=0;entryDy=0;" parent="MMfHTszjSWBwwRF4vD4u-1" target="MMfHTszjSWBwwRF4vD4u-7" edge="1">
          <mxGeometry width="50" height="50" relative="1" as="geometry">
            <mxPoint x="618" y="41" as="sourcePoint"/>
            <mxPoint x="398" y="77" as="targetPoint"/>
          </mxGeometry>
        </mxCell>
        <mxCell id="MMfHTszjSWBwwRF4vD4u-40" value="Snoop Control Unit (access to memory)" style="rounded=0;whiteSpace=wrap;html=1;strokeColor=#000000;strokeWidth=1;fillColor=none;" parent="MMfHTszjSWBwwRF4vD4u-1" vertex="1">
          <mxGeometry x="63" y="467" width="300" height="60" as="geometry"/>
        </mxCell>
        <mxCell id="MMfHTszjSWBwwRF4vD4u-42" value="" style="endArrow=classic;startArrow=classic;html=1;exitX=0.5;exitY=0;exitDx=0;exitDy=0;entryX=0.5;entryY=1;entryDx=0;entryDy=0;rounded=0;strokeWidth=2;" parent="MMfHTszjSWBwwRF4vD4u-1" source="MMfHTszjSWBwwRF4vD4u-40" target="MMfHTszjSWBwwRF4vD4u-28" edge="1">
          <mxGeometry width="50" height="50" relative="1" as="geometry">
            <mxPoint x="23" y="621" as="sourcePoint"/>
            <mxPoint x="73" y="571" as="targetPoint"/>
            <Array as="points">
              <mxPoint x="213" y="431"/>
              <mxPoint x="118" y="431"/>
            </Array>
          </mxGeometry>
        </mxCell>
        <mxCell id="MMfHTszjSWBwwRF4vD4u-43" value="" style="endArrow=classic;startArrow=classic;html=1;exitX=0.5;exitY=0;exitDx=0;exitDy=0;entryX=0.5;entryY=1;entryDx=0;entryDy=0;rounded=0;strokeWidth=2;" parent="MMfHTszjSWBwwRF4vD4u-1" source="MMfHTszjSWBwwRF4vD4u-40" target="MMfHTszjSWBwwRF4vD4u-29" edge="1">
          <mxGeometry width="50" height="50" relative="1" as="geometry">
            <mxPoint x="23" y="621" as="sourcePoint"/>
            <mxPoint x="73" y="571" as="targetPoint"/>
            <Array as="points">
              <mxPoint x="213" y="431"/>
              <mxPoint x="198" y="431"/>
            </Array>
          </mxGeometry>
        </mxCell>
        <mxCell id="MMfHTszjSWBwwRF4vD4u-44" value="" style="endArrow=classic;startArrow=classic;html=1;strokeWidth=2;exitX=0.5;exitY=1;exitDx=0;exitDy=0;rounded=0;entryX=0.5;entryY=0;entryDx=0;entryDy=0;" parent="MMfHTszjSWBwwRF4vD4u-1" source="MMfHTszjSWBwwRF4vD4u-30" target="MMfHTszjSWBwwRF4vD4u-40" edge="1">
          <mxGeometry width="50" height="50" relative="1" as="geometry">
            <mxPoint x="23" y="621" as="sourcePoint"/>
            <mxPoint x="213" y="471" as="targetPoint"/>
            <Array as="points">
              <mxPoint x="347" y="431"/>
              <mxPoint x="213" y="431"/>
            </Array>
          </mxGeometry>
        </mxCell>
        <mxCell id="MMfHTszjSWBwwRF4vD4u-45" value="" style="endArrow=classic;startArrow=classic;html=1;strokeWidth=2;exitX=0.5;exitY=1;exitDx=0;exitDy=0;rounded=0;entryX=0.5;entryY=0;entryDx=0;entryDy=0;" parent="MMfHTszjSWBwwRF4vD4u-1" source="MMfHTszjSWBwwRF4vD4u-31" target="MMfHTszjSWBwwRF4vD4u-40" edge="1">
          <mxGeometry width="50" height="50" relative="1" as="geometry">
            <mxPoint x="357" y="381" as="sourcePoint"/>
            <mxPoint x="223" y="481" as="targetPoint"/>
            <Array as="points">
              <mxPoint x="427" y="431"/>
              <mxPoint x="213" y="431"/>
            </Array>
          </mxGeometry>
        </mxCell>
        <mxCell id="MMfHTszjSWBwwRF4vD4u-46" value="" style="endArrow=classic;startArrow=classic;html=1;strokeWidth=2;rounded=0;exitX=0.5;exitY=0;exitDx=0;exitDy=0;entryX=0.5;entryY=1;entryDx=0;entryDy=0;" parent="MMfHTszjSWBwwRF4vD4u-1" source="MMfHTszjSWBwwRF4vD4u-40" target="MMfHTszjSWBwwRF4vD4u-32" edge="1">
          <mxGeometry width="50" height="50" relative="1" as="geometry">
            <mxPoint x="23" y="621" as="sourcePoint"/>
            <mxPoint x="73" y="571" as="targetPoint"/>
            <Array as="points">
              <mxPoint x="213" y="431"/>
              <mxPoint x="578" y="431"/>
            </Array>
          </mxGeometry>
        </mxCell>
        <mxCell id="MMfHTszjSWBwwRF4vD4u-47" value="" style="endArrow=classic;startArrow=classic;html=1;strokeWidth=2;rounded=0;exitX=0.5;exitY=0;exitDx=0;exitDy=0;entryX=0.5;entryY=1;entryDx=0;entryDy=0;" parent="MMfHTszjSWBwwRF4vD4u-1" source="MMfHTszjSWBwwRF4vD4u-40" target="MMfHTszjSWBwwRF4vD4u-33" edge="1">
          <mxGeometry width="50" height="50" relative="1" as="geometry">
            <mxPoint x="23" y="621" as="sourcePoint"/>
            <mxPoint x="73" y="571" as="targetPoint"/>
            <Array as="points">
              <mxPoint x="213" y="431"/>
              <mxPoint x="658" y="431"/>
            </Array>
          </mxGeometry>
        </mxCell>
        <mxCell id="MMfHTszjSWBwwRF4vD4u-48" value="" style="endArrow=classic;startArrow=classic;html=1;strokeWidth=2;entryX=0.227;entryY=1.017;entryDx=0;entryDy=0;entryPerimeter=0;exitX=0.5;exitY=0;exitDx=0;exitDy=0;" parent="MMfHTszjSWBwwRF4vD4u-1" source="MMfHTszjSWBwwRF4vD4u-49" target="MMfHTszjSWBwwRF4vD4u-40" edge="1">
          <mxGeometry width="50" height="50" relative="1" as="geometry">
            <mxPoint x="131" y="591" as="sourcePoint"/>
            <mxPoint x="73" y="571" as="targetPoint"/>
          </mxGeometry>
        </mxCell>
        <mxCell id="MMfHTszjSWBwwRF4vD4u-49" value="L2 Cache" style="rounded=0;whiteSpace=wrap;html=1;strokeColor=#000000;strokeWidth=1;fillColor=none;" parent="MMfHTszjSWBwwRF4vD4u-1" vertex="1">
          <mxGeometry x="70" y="591" width="122" height="60" as="geometry"/>
        </mxCell>
        <mxCell id="MMfHTszjSWBwwRF4vD4u-50" value="AXS Bus" style="rounded=0;whiteSpace=wrap;html=1;strokeColor=#000000;strokeWidth=1;fillColor=none;" parent="MMfHTszjSWBwwRF4vD4u-1" vertex="1">
          <mxGeometry x="228" y="591" width="120" height="60" as="geometry"/>
        </mxCell>
        <mxCell id="MMfHTszjSWBwwRF4vD4u-51" value="" style="endArrow=classic;startArrow=classic;html=1;strokeWidth=2;entryX=0.75;entryY=1;entryDx=0;entryDy=0;exitX=0.5;exitY=0;exitDx=0;exitDy=0;" parent="MMfHTszjSWBwwRF4vD4u-1" source="MMfHTszjSWBwwRF4vD4u-50" target="MMfHTszjSWBwwRF4vD4u-40" edge="1">
          <mxGeometry width="50" height="50" relative="1" as="geometry">
            <mxPoint x="288" y="581" as="sourcePoint"/>
            <mxPoint x="73" y="691" as="targetPoint"/>
          </mxGeometry>
        </mxCell>
        <mxCell id="MMfHTszjSWBwwRF4vD4u-52" value="" style="rounded=0;whiteSpace=wrap;html=1;fillColor=none;dashed=1;strokeWidth=3;dashPattern=1 1;" parent="MMfHTszjSWBwwRF4vD4u-1" vertex="1">
          <mxGeometry x="751" y="68" width="190" height="324" as="geometry"/>
        </mxCell>
        <mxCell id="MMfHTszjSWBwwRF4vD4u-53" value="&lt;h1&gt;Core 3&lt;br&gt;&lt;/h1&gt;&lt;p&gt;Other computations&lt;br&gt;&lt;/p&gt;" style="text;html=1;strokeColor=none;fillColor=none;spacing=5;spacingTop=-20;whiteSpace=wrap;overflow=hidden;rounded=0;dashed=1;" parent="MMfHTszjSWBwwRF4vD4u-1" vertex="1">
          <mxGeometry x="786" y="92" width="120" height="80" as="geometry"/>
        </mxCell>
        <mxCell id="MMfHTszjSWBwwRF4vD4u-54" value="Normal world" style="rounded=0;whiteSpace=wrap;html=1;strokeColor=#000000;strokeWidth=2;fillColor=none;" parent="MMfHTszjSWBwwRF4vD4u-1" vertex="1">
          <mxGeometry x="771" y="182" width="150" height="80" as="geometry"/>
        </mxCell>
        <mxCell id="MMfHTszjSWBwwRF4vD4u-55" value="&lt;strike&gt;Monitor&lt;/strike&gt;" style="rounded=0;whiteSpace=wrap;html=1;strokeColor=#666666;strokeWidth=2;fillColor=#f5f5f5;fontColor=#333333;" parent="MMfHTszjSWBwwRF4vD4u-1" vertex="1">
          <mxGeometry x="771" y="282" width="150" height="30" as="geometry"/>
        </mxCell>
        <mxCell id="MMfHTszjSWBwwRF4vD4u-56" value="L1 D" style="rounded=0;whiteSpace=wrap;html=1;strokeColor=#000000;strokeWidth=2;fillColor=none;" parent="MMfHTszjSWBwwRF4vD4u-1" vertex="1">
          <mxGeometry x="771" y="332" width="70" height="40" as="geometry"/>
        </mxCell>
        <mxCell id="MMfHTszjSWBwwRF4vD4u-57" value="L1 I" style="rounded=0;whiteSpace=wrap;html=1;strokeColor=#000000;strokeWidth=2;fillColor=none;" parent="MMfHTszjSWBwwRF4vD4u-1" vertex="1">
          <mxGeometry x="851" y="332" width="70" height="40" as="geometry"/>
        </mxCell>
        <mxCell id="MMfHTszjSWBwwRF4vD4u-58" value="" style="endArrow=classic;html=1;entryX=0.5;entryY=0;entryDx=0;entryDy=0;" parent="MMfHTszjSWBwwRF4vD4u-1" target="MMfHTszjSWBwwRF4vD4u-52" edge="1">
          <mxGeometry width="50" height="50" relative="1" as="geometry">
            <mxPoint x="846" y="42" as="sourcePoint"/>
            <mxPoint x="626" y="78" as="targetPoint"/>
          </mxGeometry>
        </mxCell>
        <mxCell id="MMfHTszjSWBwwRF4vD4u-59" value="" style="endArrow=classic;startArrow=classic;html=1;strokeWidth=2;entryX=0.5;entryY=0;entryDx=0;entryDy=0;exitX=0.5;exitY=1;exitDx=0;exitDy=0;rounded=0;" parent="MMfHTszjSWBwwRF4vD4u-1" source="MMfHTszjSWBwwRF4vD4u-56" target="MMfHTszjSWBwwRF4vD4u-40" edge="1">
          <mxGeometry width="50" height="50" relative="1" as="geometry">
            <mxPoint x="133" y="721" as="sourcePoint"/>
            <mxPoint x="183" y="671" as="targetPoint"/>
            <Array as="points">
              <mxPoint x="806" y="431"/>
              <mxPoint x="213" y="431"/>
            </Array>
          </mxGeometry>
        </mxCell>
        <mxCell id="MMfHTszjSWBwwRF4vD4u-60" value="" style="endArrow=classic;startArrow=classic;html=1;strokeWidth=2;exitX=0.5;exitY=1;exitDx=0;exitDy=0;rounded=0;entryX=0.5;entryY=0;entryDx=0;entryDy=0;" parent="MMfHTszjSWBwwRF4vD4u-1" source="MMfHTszjSWBwwRF4vD4u-57" target="MMfHTszjSWBwwRF4vD4u-40" edge="1">
          <mxGeometry width="50" height="50" relative="1" as="geometry">
            <mxPoint x="133" y="721" as="sourcePoint"/>
            <mxPoint x="493" y="681" as="targetPoint"/>
            <Array as="points">
              <mxPoint x="886" y="431"/>
              <mxPoint x="213" y="431"/>
            </Array>
          </mxGeometry>
        </mxCell>
        <mxCell id="MMfHTszjSWBwwRF4vD4u-61" value="&lt;h1&gt;Cosa fa?&lt;/h1&gt;&lt;p style=&quot;font-size: 13px&quot;&gt;Il sistema prevede l&#39;esecuzione di una &quot;Main application&quot; che richiede uno o più servizi sensibili per la safety, per i quali sono riservati 2 core su 4. I 2 core eseguono lo stesso servizio contemporaneamente, uno in Normal World, l&#39;altro in Secure World e passano il risultato della computazione alla Main application per lasciare a lei il compito di votare. Ogni volta che viene richiesto il servizio Safety-critical, i due core si scambiano di ruolo: quello che in precedenza aveva eseguito in Normal World, eseguirà in Secure World e vice versa. Sul processore possono essere eseguiti anche altri programmi, che non richiedano l&#39;uso della TrustZone, sugli altri core.&lt;br&gt;&lt;/p&gt;" style="text;html=1;strokeColor=none;fillColor=none;spacing=5;spacingTop=-20;whiteSpace=wrap;overflow=hidden;rounded=0;" parent="MMfHTszjSWBwwRF4vD4u-1" vertex="1">
          <mxGeometry x="408" y="591" width="592" height="209" as="geometry"/>
        </mxCell>
      </root>
    </mxGraphModel>
  </diagram>
  <diagram id="DKrkFWsv9QJQa4056tBZ" name="Page-4">
    <mxGraphModel dx="955" dy="1632" grid="1" gridSize="10" guides="1" tooltips="1" connect="1" arrows="1" fold="1" page="1" pageScale="1" pageWidth="1169" pageHeight="827" math="0" shadow="0">
      <root>
        <mxCell id="C2O0bEbQHnN_CVEVgC66-0"/>
        <mxCell id="C2O0bEbQHnN_CVEVgC66-1" parent="C2O0bEbQHnN_CVEVgC66-0"/>
        <mxCell id="Pr3bl7-fi3gbvh2vj82H-3" value="" style="whiteSpace=wrap;html=1;rounded=1;arcSize=21;align=center;verticalAlign=middle;container=1;recursiveResize=0;strokeWidth=3;autosize=1;spacing=4;treeFolding=1;fillColor=none;dashed=1;dashPattern=1 1;" parent="C2O0bEbQHnN_CVEVgC66-1" vertex="1">
          <mxGeometry x="436" y="-783.5" width="510" height="230" as="geometry"/>
        </mxCell>
        <mxCell id="1Iv42HN0lJwkFIjYQbGf-0" value="" style="rounded=0;whiteSpace=wrap;html=1;fillColor=none;dashed=1;strokeWidth=3;" parent="C2O0bEbQHnN_CVEVgC66-1" vertex="1">
          <mxGeometry x="77.5" y="126" width="960" height="530" as="geometry"/>
        </mxCell>
        <mxCell id="1Iv42HN0lJwkFIjYQbGf-1" value="" style="rounded=0;whiteSpace=wrap;html=1;fillColor=none;dashed=1;strokeWidth=3;dashPattern=1 1;" parent="C2O0bEbQHnN_CVEVgC66-1" vertex="1">
          <mxGeometry x="117.5" y="162" width="190" height="324" as="geometry"/>
        </mxCell>
        <mxCell id="1Iv42HN0lJwkFIjYQbGf-2" value="" style="rounded=0;whiteSpace=wrap;html=1;fillColor=none;dashed=1;strokeWidth=3;dashPattern=1 1;" parent="C2O0bEbQHnN_CVEVgC66-1" vertex="1">
          <mxGeometry x="347.5" y="162" width="190" height="324" as="geometry"/>
        </mxCell>
        <mxCell id="1Iv42HN0lJwkFIjYQbGf-3" value="" style="rounded=0;whiteSpace=wrap;html=1;fillColor=none;dashed=1;strokeWidth=3;dashPattern=1 1;" parent="C2O0bEbQHnN_CVEVgC66-1" vertex="1">
          <mxGeometry x="577.5" y="162" width="190" height="324" as="geometry"/>
        </mxCell>
        <mxCell id="1Iv42HN0lJwkFIjYQbGf-4" value="&lt;h1&gt;Core 0&lt;br&gt;&lt;/h1&gt;&lt;p&gt;Redundant service&lt;br&gt;&lt;/p&gt;" style="text;html=1;strokeColor=none;fillColor=none;spacing=5;spacingTop=-20;whiteSpace=wrap;overflow=hidden;rounded=0;dashed=1;" parent="C2O0bEbQHnN_CVEVgC66-1" vertex="1">
          <mxGeometry x="147.5" y="171" width="120" height="80" as="geometry"/>
        </mxCell>
        <mxCell id="1Iv42HN0lJwkFIjYQbGf-5" value="&lt;h1&gt;Core 1&lt;/h1&gt;&lt;p&gt;Redundant service&lt;br&gt;&lt;/p&gt;" style="text;html=1;strokeColor=none;fillColor=none;spacing=5;spacingTop=-20;whiteSpace=wrap;overflow=hidden;rounded=0;dashed=1;" parent="C2O0bEbQHnN_CVEVgC66-1" vertex="1">
          <mxGeometry x="381.5" y="171" width="120" height="80" as="geometry"/>
        </mxCell>
        <mxCell id="1Iv42HN0lJwkFIjYQbGf-6" value="&lt;h1&gt;Core 2&lt;br&gt;&lt;/h1&gt;&lt;p&gt;Main application&lt;/p&gt;" style="text;html=1;strokeColor=none;fillColor=none;spacing=5;spacingTop=-20;whiteSpace=wrap;overflow=hidden;rounded=0;dashed=1;" parent="C2O0bEbQHnN_CVEVgC66-1" vertex="1">
          <mxGeometry x="612.5" y="171" width="120" height="80" as="geometry"/>
        </mxCell>
        <mxCell id="1Iv42HN0lJwkFIjYQbGf-7" value="Normal world" style="rounded=0;whiteSpace=wrap;html=1;strokeWidth=2;fillColor=none;strokeColor=#000000;" parent="C2O0bEbQHnN_CVEVgC66-1" vertex="1">
          <mxGeometry x="141" y="255" width="70" height="75" as="geometry"/>
        </mxCell>
        <mxCell id="1Iv42HN0lJwkFIjYQbGf-8" value="Secure world" style="rounded=0;whiteSpace=wrap;html=1;strokeWidth=2;fillColor=none;strokeColor=#000000;" parent="C2O0bEbQHnN_CVEVgC66-1" vertex="1">
          <mxGeometry x="220" y="255" width="68" height="75" as="geometry"/>
        </mxCell>
        <mxCell id="1Iv42HN0lJwkFIjYQbGf-11" value="Normal world" style="rounded=0;whiteSpace=wrap;html=1;strokeColor=#000000;strokeWidth=2;fillColor=none;" parent="C2O0bEbQHnN_CVEVgC66-1" vertex="1">
          <mxGeometry x="598" y="255" width="150" height="75" as="geometry"/>
        </mxCell>
        <mxCell id="1Iv42HN0lJwkFIjYQbGf-12" value="Monitor" style="rounded=0;whiteSpace=wrap;html=1;strokeColor=#000000;strokeWidth=2;fillColor=none;" parent="C2O0bEbQHnN_CVEVgC66-1" vertex="1">
          <mxGeometry x="141" y="382" width="150" height="30" as="geometry"/>
        </mxCell>
        <mxCell id="1Iv42HN0lJwkFIjYQbGf-14" value="&lt;strike&gt;Monitor&lt;/strike&gt;" style="rounded=0;whiteSpace=wrap;html=1;strokeColor=#666666;strokeWidth=2;fillColor=#f5f5f5;fontColor=#333333;" parent="C2O0bEbQHnN_CVEVgC66-1" vertex="1">
          <mxGeometry x="597.5" y="381" width="150" height="30" as="geometry"/>
        </mxCell>
        <mxCell id="1Iv42HN0lJwkFIjYQbGf-15" value="L1 D" style="rounded=0;whiteSpace=wrap;html=1;strokeColor=#000000;strokeWidth=2;fillColor=none;" parent="C2O0bEbQHnN_CVEVgC66-1" vertex="1">
          <mxGeometry x="141.5" y="427" width="70" height="40" as="geometry"/>
        </mxCell>
        <mxCell id="1Iv42HN0lJwkFIjYQbGf-16" value="L1 I" style="rounded=0;whiteSpace=wrap;html=1;strokeColor=#000000;strokeWidth=2;fillColor=none;" parent="C2O0bEbQHnN_CVEVgC66-1" vertex="1">
          <mxGeometry x="221" y="426" width="70" height="40" as="geometry"/>
        </mxCell>
        <mxCell id="1Iv42HN0lJwkFIjYQbGf-17" value="L1 D" style="rounded=0;whiteSpace=wrap;html=1;strokeColor=#000000;strokeWidth=2;fillColor=none;" parent="C2O0bEbQHnN_CVEVgC66-1" vertex="1">
          <mxGeometry x="366.5" y="426" width="70" height="40" as="geometry"/>
        </mxCell>
        <mxCell id="1Iv42HN0lJwkFIjYQbGf-18" value="L1 I" style="rounded=0;whiteSpace=wrap;html=1;strokeColor=#000000;strokeWidth=2;fillColor=none;" parent="C2O0bEbQHnN_CVEVgC66-1" vertex="1">
          <mxGeometry x="446.5" y="426" width="70" height="40" as="geometry"/>
        </mxCell>
        <mxCell id="1Iv42HN0lJwkFIjYQbGf-19" value="L1 D" style="rounded=0;whiteSpace=wrap;html=1;strokeColor=#000000;strokeWidth=2;fillColor=none;" parent="C2O0bEbQHnN_CVEVgC66-1" vertex="1">
          <mxGeometry x="597.5" y="426" width="70" height="40" as="geometry"/>
        </mxCell>
        <mxCell id="1Iv42HN0lJwkFIjYQbGf-20" value="L1 I" style="rounded=0;whiteSpace=wrap;html=1;strokeColor=#000000;strokeWidth=2;fillColor=none;" parent="C2O0bEbQHnN_CVEVgC66-1" vertex="1">
          <mxGeometry x="677.5" y="426" width="70" height="40" as="geometry"/>
        </mxCell>
        <mxCell id="1Iv42HN0lJwkFIjYQbGf-21" value="Interrupt controller + Distributor" style="rounded=0;whiteSpace=wrap;html=1;strokeColor=#000000;strokeWidth=1;fillColor=none;" parent="C2O0bEbQHnN_CVEVgC66-1" vertex="1">
          <mxGeometry x="810.5" y="566" width="190" height="60" as="geometry"/>
        </mxCell>
        <mxCell id="1Iv42HN0lJwkFIjYQbGf-22" value="" style="endArrow=classic;html=1;exitX=0.75;exitY=0;exitDx=0;exitDy=0;entryX=0.5;entryY=0;entryDx=0;entryDy=0;rounded=1;" parent="C2O0bEbQHnN_CVEVgC66-1" source="1Iv42HN0lJwkFIjYQbGf-21" target="1Iv42HN0lJwkFIjYQbGf-1" edge="1">
          <mxGeometry width="50" height="50" relative="1" as="geometry">
            <mxPoint x="447.5" y="736" as="sourcePoint"/>
            <mxPoint x="497.5" y="686" as="targetPoint"/>
            <Array as="points">
              <mxPoint x="953.5" y="536"/>
              <mxPoint x="1017.5" y="536"/>
              <mxPoint x="1017.5" y="136"/>
              <mxPoint x="212.5" y="136"/>
            </Array>
          </mxGeometry>
        </mxCell>
        <mxCell id="1Iv42HN0lJwkFIjYQbGf-23" value="" style="endArrow=classic;html=1;entryX=0.5;entryY=0;entryDx=0;entryDy=0;" parent="C2O0bEbQHnN_CVEVgC66-1" target="1Iv42HN0lJwkFIjYQbGf-2" edge="1">
          <mxGeometry width="50" height="50" relative="1" as="geometry">
            <mxPoint x="442.5" y="136" as="sourcePoint"/>
            <mxPoint x="127.5" y="666" as="targetPoint"/>
          </mxGeometry>
        </mxCell>
        <mxCell id="1Iv42HN0lJwkFIjYQbGf-24" value="" style="endArrow=classic;html=1;entryX=0.5;entryY=0;entryDx=0;entryDy=0;" parent="C2O0bEbQHnN_CVEVgC66-1" target="1Iv42HN0lJwkFIjYQbGf-3" edge="1">
          <mxGeometry width="50" height="50" relative="1" as="geometry">
            <mxPoint x="672.5" y="136" as="sourcePoint"/>
            <mxPoint x="452.5" y="172" as="targetPoint"/>
          </mxGeometry>
        </mxCell>
        <mxCell id="1Iv42HN0lJwkFIjYQbGf-25" value="Snoop Control Unit (access to memory)" style="rounded=0;whiteSpace=wrap;html=1;strokeColor=#000000;strokeWidth=1;fillColor=none;" parent="C2O0bEbQHnN_CVEVgC66-1" vertex="1">
          <mxGeometry x="117.5" y="562" width="300" height="60" as="geometry"/>
        </mxCell>
        <mxCell id="1Iv42HN0lJwkFIjYQbGf-26" value="" style="endArrow=classic;startArrow=classic;html=1;exitX=0.5;exitY=0;exitDx=0;exitDy=0;entryX=0.5;entryY=1;entryDx=0;entryDy=0;rounded=0;strokeWidth=2;" parent="C2O0bEbQHnN_CVEVgC66-1" source="1Iv42HN0lJwkFIjYQbGf-25" target="1Iv42HN0lJwkFIjYQbGf-15" edge="1">
          <mxGeometry width="50" height="50" relative="1" as="geometry">
            <mxPoint x="77.5" y="716" as="sourcePoint"/>
            <mxPoint x="127.5" y="666" as="targetPoint"/>
            <Array as="points">
              <mxPoint x="267.5" y="526"/>
              <mxPoint x="177" y="526"/>
            </Array>
          </mxGeometry>
        </mxCell>
        <mxCell id="1Iv42HN0lJwkFIjYQbGf-27" value="" style="endArrow=classic;startArrow=classic;html=1;exitX=0.5;exitY=0;exitDx=0;exitDy=0;entryX=0.5;entryY=1;entryDx=0;entryDy=0;rounded=0;strokeWidth=2;" parent="C2O0bEbQHnN_CVEVgC66-1" source="1Iv42HN0lJwkFIjYQbGf-25" target="1Iv42HN0lJwkFIjYQbGf-16" edge="1">
          <mxGeometry width="50" height="50" relative="1" as="geometry">
            <mxPoint x="77.5" y="716" as="sourcePoint"/>
            <mxPoint x="127.5" y="666" as="targetPoint"/>
            <Array as="points">
              <mxPoint x="267.5" y="526"/>
              <mxPoint x="256" y="526"/>
            </Array>
          </mxGeometry>
        </mxCell>
        <mxCell id="1Iv42HN0lJwkFIjYQbGf-28" value="" style="endArrow=classic;startArrow=classic;html=1;strokeWidth=2;exitX=0.5;exitY=1;exitDx=0;exitDy=0;rounded=0;entryX=0.5;entryY=0;entryDx=0;entryDy=0;" parent="C2O0bEbQHnN_CVEVgC66-1" source="1Iv42HN0lJwkFIjYQbGf-17" target="1Iv42HN0lJwkFIjYQbGf-25" edge="1">
          <mxGeometry width="50" height="50" relative="1" as="geometry">
            <mxPoint x="77.5" y="716" as="sourcePoint"/>
            <mxPoint x="267.5" y="566" as="targetPoint"/>
            <Array as="points">
              <mxPoint x="401.5" y="526"/>
              <mxPoint x="267.5" y="526"/>
            </Array>
          </mxGeometry>
        </mxCell>
        <mxCell id="1Iv42HN0lJwkFIjYQbGf-29" value="" style="endArrow=classic;startArrow=classic;html=1;strokeWidth=2;exitX=0.5;exitY=1;exitDx=0;exitDy=0;rounded=0;entryX=0.5;entryY=0;entryDx=0;entryDy=0;" parent="C2O0bEbQHnN_CVEVgC66-1" source="1Iv42HN0lJwkFIjYQbGf-18" target="1Iv42HN0lJwkFIjYQbGf-25" edge="1">
          <mxGeometry width="50" height="50" relative="1" as="geometry">
            <mxPoint x="411.5" y="476" as="sourcePoint"/>
            <mxPoint x="277.5" y="576" as="targetPoint"/>
            <Array as="points">
              <mxPoint x="481.5" y="526"/>
              <mxPoint x="267.5" y="526"/>
            </Array>
          </mxGeometry>
        </mxCell>
        <mxCell id="1Iv42HN0lJwkFIjYQbGf-30" value="" style="endArrow=classic;startArrow=classic;html=1;strokeWidth=2;rounded=0;exitX=0.5;exitY=0;exitDx=0;exitDy=0;entryX=0.5;entryY=1;entryDx=0;entryDy=0;" parent="C2O0bEbQHnN_CVEVgC66-1" source="1Iv42HN0lJwkFIjYQbGf-25" target="1Iv42HN0lJwkFIjYQbGf-19" edge="1">
          <mxGeometry width="50" height="50" relative="1" as="geometry">
            <mxPoint x="77.5" y="716" as="sourcePoint"/>
            <mxPoint x="127.5" y="666" as="targetPoint"/>
            <Array as="points">
              <mxPoint x="267.5" y="526"/>
              <mxPoint x="632.5" y="526"/>
            </Array>
          </mxGeometry>
        </mxCell>
        <mxCell id="1Iv42HN0lJwkFIjYQbGf-31" value="" style="endArrow=classic;startArrow=classic;html=1;strokeWidth=2;rounded=0;exitX=0.5;exitY=0;exitDx=0;exitDy=0;entryX=0.5;entryY=1;entryDx=0;entryDy=0;" parent="C2O0bEbQHnN_CVEVgC66-1" source="1Iv42HN0lJwkFIjYQbGf-25" target="1Iv42HN0lJwkFIjYQbGf-20" edge="1">
          <mxGeometry width="50" height="50" relative="1" as="geometry">
            <mxPoint x="77.5" y="716" as="sourcePoint"/>
            <mxPoint x="127.5" y="666" as="targetPoint"/>
            <Array as="points">
              <mxPoint x="267.5" y="526"/>
              <mxPoint x="712.5" y="526"/>
            </Array>
          </mxGeometry>
        </mxCell>
        <mxCell id="1Iv42HN0lJwkFIjYQbGf-32" value="" style="endArrow=classic;startArrow=classic;html=1;strokeWidth=2;entryX=0.227;entryY=1.017;entryDx=0;entryDy=0;entryPerimeter=0;exitX=0.5;exitY=0;exitDx=0;exitDy=0;" parent="C2O0bEbQHnN_CVEVgC66-1" source="1Iv42HN0lJwkFIjYQbGf-33" target="1Iv42HN0lJwkFIjYQbGf-25" edge="1">
          <mxGeometry width="50" height="50" relative="1" as="geometry">
            <mxPoint x="185.5" y="686" as="sourcePoint"/>
            <mxPoint x="127.5" y="666" as="targetPoint"/>
          </mxGeometry>
        </mxCell>
        <mxCell id="1Iv42HN0lJwkFIjYQbGf-33" value="L2 Cache" style="rounded=0;whiteSpace=wrap;html=1;strokeColor=#000000;strokeWidth=1;fillColor=none;" parent="C2O0bEbQHnN_CVEVgC66-1" vertex="1">
          <mxGeometry x="124.5" y="686" width="122" height="60" as="geometry"/>
        </mxCell>
        <mxCell id="1Iv42HN0lJwkFIjYQbGf-34" value="AXS Bus" style="rounded=0;whiteSpace=wrap;html=1;strokeColor=#000000;strokeWidth=1;fillColor=none;" parent="C2O0bEbQHnN_CVEVgC66-1" vertex="1">
          <mxGeometry x="282.5" y="686" width="120" height="60" as="geometry"/>
        </mxCell>
        <mxCell id="1Iv42HN0lJwkFIjYQbGf-35" value="" style="endArrow=classic;startArrow=classic;html=1;strokeWidth=2;entryX=0.75;entryY=1;entryDx=0;entryDy=0;exitX=0.5;exitY=0;exitDx=0;exitDy=0;" parent="C2O0bEbQHnN_CVEVgC66-1" source="1Iv42HN0lJwkFIjYQbGf-34" target="1Iv42HN0lJwkFIjYQbGf-25" edge="1">
          <mxGeometry width="50" height="50" relative="1" as="geometry">
            <mxPoint x="342.5" y="676" as="sourcePoint"/>
            <mxPoint x="127.5" y="786" as="targetPoint"/>
          </mxGeometry>
        </mxCell>
        <mxCell id="1Iv42HN0lJwkFIjYQbGf-36" value="" style="rounded=0;whiteSpace=wrap;html=1;fillColor=none;dashed=1;strokeWidth=3;dashPattern=1 1;" parent="C2O0bEbQHnN_CVEVgC66-1" vertex="1">
          <mxGeometry x="805.5" y="163" width="190" height="324" as="geometry"/>
        </mxCell>
        <mxCell id="1Iv42HN0lJwkFIjYQbGf-37" value="&lt;h1&gt;Core 3&lt;br&gt;&lt;/h1&gt;&lt;p&gt;Other computations&lt;br&gt;&lt;/p&gt;" style="text;html=1;strokeColor=none;fillColor=none;spacing=5;spacingTop=-20;whiteSpace=wrap;overflow=hidden;rounded=0;dashed=1;" parent="C2O0bEbQHnN_CVEVgC66-1" vertex="1">
          <mxGeometry x="840.5" y="171" width="120" height="80" as="geometry"/>
        </mxCell>
        <mxCell id="1Iv42HN0lJwkFIjYQbGf-38" value="Normal world" style="rounded=0;whiteSpace=wrap;html=1;strokeColor=#000000;strokeWidth=2;fillColor=none;" parent="C2O0bEbQHnN_CVEVgC66-1" vertex="1">
          <mxGeometry x="825.5" y="277" width="150" height="80" as="geometry"/>
        </mxCell>
        <mxCell id="1Iv42HN0lJwkFIjYQbGf-39" value="&lt;strike&gt;Monitor&lt;/strike&gt;" style="rounded=0;whiteSpace=wrap;html=1;strokeColor=#666666;strokeWidth=2;fillColor=#f5f5f5;fontColor=#333333;" parent="C2O0bEbQHnN_CVEVgC66-1" vertex="1">
          <mxGeometry x="825.5" y="377" width="150" height="30" as="geometry"/>
        </mxCell>
        <mxCell id="1Iv42HN0lJwkFIjYQbGf-40" value="L1 D" style="rounded=0;whiteSpace=wrap;html=1;strokeColor=#000000;strokeWidth=2;fillColor=none;" parent="C2O0bEbQHnN_CVEVgC66-1" vertex="1">
          <mxGeometry x="825.5" y="427" width="70" height="40" as="geometry"/>
        </mxCell>
        <mxCell id="1Iv42HN0lJwkFIjYQbGf-41" value="L1 I" style="rounded=0;whiteSpace=wrap;html=1;strokeColor=#000000;strokeWidth=2;fillColor=none;" parent="C2O0bEbQHnN_CVEVgC66-1" vertex="1">
          <mxGeometry x="905.5" y="427" width="70" height="40" as="geometry"/>
        </mxCell>
        <mxCell id="1Iv42HN0lJwkFIjYQbGf-42" value="" style="endArrow=classic;html=1;entryX=0.5;entryY=0;entryDx=0;entryDy=0;" parent="C2O0bEbQHnN_CVEVgC66-1" target="1Iv42HN0lJwkFIjYQbGf-36" edge="1">
          <mxGeometry width="50" height="50" relative="1" as="geometry">
            <mxPoint x="900.5" y="137" as="sourcePoint"/>
            <mxPoint x="680.5" y="173" as="targetPoint"/>
          </mxGeometry>
        </mxCell>
        <mxCell id="1Iv42HN0lJwkFIjYQbGf-43" value="" style="endArrow=classic;startArrow=classic;html=1;strokeWidth=2;entryX=0.5;entryY=0;entryDx=0;entryDy=0;exitX=0.5;exitY=1;exitDx=0;exitDy=0;rounded=0;" parent="C2O0bEbQHnN_CVEVgC66-1" source="1Iv42HN0lJwkFIjYQbGf-40" target="1Iv42HN0lJwkFIjYQbGf-25" edge="1">
          <mxGeometry width="50" height="50" relative="1" as="geometry">
            <mxPoint x="187.5" y="816" as="sourcePoint"/>
            <mxPoint x="237.5" y="766" as="targetPoint"/>
            <Array as="points">
              <mxPoint x="860.5" y="526"/>
              <mxPoint x="267.5" y="526"/>
            </Array>
          </mxGeometry>
        </mxCell>
        <mxCell id="1Iv42HN0lJwkFIjYQbGf-44" value="" style="endArrow=classic;startArrow=classic;html=1;strokeWidth=2;exitX=0.5;exitY=1;exitDx=0;exitDy=0;rounded=0;entryX=0.5;entryY=0;entryDx=0;entryDy=0;" parent="C2O0bEbQHnN_CVEVgC66-1" source="1Iv42HN0lJwkFIjYQbGf-41" target="1Iv42HN0lJwkFIjYQbGf-25" edge="1">
          <mxGeometry width="50" height="50" relative="1" as="geometry">
            <mxPoint x="187.5" y="816" as="sourcePoint"/>
            <mxPoint x="547.5" y="776" as="targetPoint"/>
            <Array as="points">
              <mxPoint x="940.5" y="526"/>
              <mxPoint x="267.5" y="526"/>
            </Array>
          </mxGeometry>
        </mxCell>
        <mxCell id="1Iv42HN0lJwkFIjYQbGf-45" value="&lt;h1&gt;Cosa fa?&lt;br&gt;&lt;/h1&gt;&lt;p style=&quot;font-size: 13px&quot;&gt;Il sistema prevede l&#39;esecuzione di una &quot;Main application&quot; che richiede uno o più servizi sensibili per la safety, per i quali sono riservati 2 core su 4. I 2 core eseguono lo stesso servizio contemporaneamente, uno in Normal World, l&#39;altro in Secure World e passano il risultato della computazione alla Main application per lasciare a lei il compito di votare. Ogni volta che viene richiesto il servizio Safety-critical, i due core si scambiano di ruolo: quello che in precedenza aveva eseguito in Normal World, eseguirà in Secure World e vice versa. Sul processore possono essere eseguiti anche altri programmi, che non richiedano l&#39;uso della TrustZone, sugli altri core.&lt;br&gt;&lt;/p&gt;" style="text;html=1;strokeColor=none;fillColor=none;spacing=5;spacingTop=-20;whiteSpace=wrap;overflow=hidden;rounded=0;" parent="C2O0bEbQHnN_CVEVgC66-1" vertex="1">
          <mxGeometry x="453" y="-771.5" width="492" height="205" as="geometry"/>
        </mxCell>
        <mxCell id="1Iv42HN0lJwkFIjYQbGf-46" value="&lt;p style=&quot;line-height: 110% ; font-size: 10px&quot;&gt;&lt;font style=&quot;font-size: 10px&quot;&gt;TrustZone API&lt;/font&gt;&lt;/p&gt;" style="rounded=0;whiteSpace=wrap;html=1;fillColor=none;strokeWidth=2;rotation=0;labelPosition=center;verticalLabelPosition=middle;align=center;verticalAlign=middle;spacingTop=-5;" parent="C2O0bEbQHnN_CVEVgC66-1" vertex="1">
          <mxGeometry x="140" y="342" width="150" height="27" as="geometry"/>
        </mxCell>
        <mxCell id="Pr3bl7-fi3gbvh2vj82H-0" value="&lt;h1 style=&quot;font-size: 20px&quot;&gt;Normal World&lt;br&gt;&lt;/h1&gt;&lt;p&gt;i processi che vengono eseguiti&amp;nbsp; in normal world non possono accedere alla memoria e ai dispositivi riservati all&#39;esecuzione sicura&lt;br&gt;&lt;/p&gt;" style="text;html=1;strokeColor=none;fillColor=none;spacing=5;spacingTop=-20;whiteSpace=wrap;overflow=hidden;rounded=0;align=center;" parent="C2O0bEbQHnN_CVEVgC66-1" vertex="1">
          <mxGeometry x="33.5" y="-648" width="263" height="90" as="geometry"/>
        </mxCell>
        <mxCell id="Pr3bl7-fi3gbvh2vj82H-1" value="&lt;h1 style=&quot;font-size: 20px&quot;&gt;Secure World&lt;br&gt;&lt;/h1&gt;&lt;p&gt;i processi che vengono eseguiti&amp;nbsp; nel secure world possono accedere a tutto. In più, i dispositivi richiesti da tali processi divengono momentaneamente inaccessibili a chi esegue in normal world&lt;br&gt;&lt;/p&gt;" style="text;html=1;strokeColor=none;fillColor=none;spacing=5;spacingTop=-20;whiteSpace=wrap;overflow=hidden;rounded=0;align=center;" parent="C2O0bEbQHnN_CVEVgC66-1" vertex="1">
          <mxGeometry x="46.5" y="-792" width="250" height="124" as="geometry"/>
        </mxCell>
        <mxCell id="Pr3bl7-fi3gbvh2vj82H-2" value="&lt;div&gt;Giovannino il sistemista&lt;/div&gt;" style="shape=umlActor;verticalLabelPosition=bottom;labelBackgroundColor=#ffffff;verticalAlign=top;html=1;outlineConnect=0;strokeWidth=2;fillColor=none;" parent="C2O0bEbQHnN_CVEVgC66-1" vertex="1">
          <mxGeometry x="1000" y="-743" width="75" height="150" as="geometry"/>
        </mxCell>
        <mxCell id="Pr3bl7-fi3gbvh2vj82H-11" value="" style="curved=1;endArrow=none;html=1;exitX=1;exitY=0.25;exitDx=0;exitDy=0;entryX=0.25;entryY=0.1;entryDx=0;entryDy=0;entryPerimeter=0;endFill=0;dashed=1;dashPattern=1 1;strokeWidth=3;" parent="C2O0bEbQHnN_CVEVgC66-1" source="1Iv42HN0lJwkFIjYQbGf-45" target="Pr3bl7-fi3gbvh2vj82H-2" edge="1">
          <mxGeometry width="50" height="50" relative="1" as="geometry">
            <mxPoint x="1010" y="321" as="sourcePoint"/>
            <mxPoint x="1060" y="271" as="targetPoint"/>
            <Array as="points">
              <mxPoint x="980" y="-770"/>
            </Array>
          </mxGeometry>
        </mxCell>
        <mxCell id="lgMQCOxL0D-Bw9QToHTT-0" value="" style="endArrow=classic;html=1;entryX=0.5;entryY=0;entryDx=0;entryDy=0;" parent="C2O0bEbQHnN_CVEVgC66-1" target="1Iv42HN0lJwkFIjYQbGf-2" edge="1">
          <mxGeometry width="50" height="50" relative="1" as="geometry">
            <mxPoint x="442.5" y="136" as="sourcePoint"/>
            <mxPoint x="442.4310344827586" y="161.79310344827593" as="targetPoint"/>
          </mxGeometry>
        </mxCell>
        <mxCell id="guLUk-AVYRh-WsxbYUjE-0" value="&lt;h1&gt;Interprocess communication over different world&lt;br&gt;&lt;/h1&gt;" style="text;html=1;strokeColor=none;fillColor=none;align=center;verticalAlign=middle;whiteSpace=wrap;rounded=0;dashed=1;dashPattern=1 1;" parent="C2O0bEbQHnN_CVEVgC66-1" vertex="1">
          <mxGeometry x="17.5" y="-355" width="590" height="60" as="geometry"/>
        </mxCell>
        <mxCell id="guLUk-AVYRh-WsxbYUjE-1" value="" style="group;container=1;" parent="C2O0bEbQHnN_CVEVgC66-1" vertex="1" connectable="0">
          <mxGeometry x="78" y="-265.5" width="470" height="215" as="geometry"/>
        </mxCell>
        <mxCell id="guLUk-AVYRh-WsxbYUjE-2" value="&lt;p&gt;&lt;font style=&quot;font-size: 18px&quot;&gt;Safety-critical service process&lt;/font&gt;&lt;/p&gt;" style="rounded=1;whiteSpace=wrap;html=1;fillColor=none;dashed=1;strokeWidth=3;dashPattern=1 1;shadow=0;glass=0;comic=0;arcSize=31;" parent="guLUk-AVYRh-WsxbYUjE-1" vertex="1">
          <mxGeometry width="127" height="110" as="geometry"/>
        </mxCell>
        <mxCell id="guLUk-AVYRh-WsxbYUjE-3" value="&lt;p&gt;&lt;font style=&quot;font-size: 18px&quot;&gt;Main application process&lt;br&gt;&lt;/font&gt;&lt;/p&gt;" style="rounded=1;whiteSpace=wrap;html=1;fillColor=none;dashed=1;strokeWidth=3;dashPattern=1 1;shadow=0;glass=0;comic=0;arcSize=31;" parent="guLUk-AVYRh-WsxbYUjE-1" vertex="1">
          <mxGeometry x="340" width="130" height="110" as="geometry"/>
        </mxCell>
        <mxCell id="guLUk-AVYRh-WsxbYUjE-4" value="" style="endArrow=classic;startArrow=classic;html=1;strokeWidth=2;entryX=0.5;entryY=1;entryDx=0;entryDy=0;exitX=0.13;exitY=0.021;exitDx=0;exitDy=0;exitPerimeter=0;" parent="guLUk-AVYRh-WsxbYUjE-1" source="guLUk-AVYRh-WsxbYUjE-7" target="guLUk-AVYRh-WsxbYUjE-2" edge="1">
          <mxGeometry width="50" height="50" relative="1" as="geometry">
            <mxPoint x="126" y="270" as="sourcePoint"/>
            <mxPoint x="160" y="450" as="targetPoint"/>
          </mxGeometry>
        </mxCell>
        <mxCell id="guLUk-AVYRh-WsxbYUjE-5" value="" style="endArrow=classic;startArrow=classic;html=1;strokeWidth=2;exitX=0.872;exitY=-0.026;exitDx=0;exitDy=0;exitPerimeter=0;entryX=0.5;entryY=1;entryDx=0;entryDy=0;" parent="guLUk-AVYRh-WsxbYUjE-1" source="guLUk-AVYRh-WsxbYUjE-7" target="guLUk-AVYRh-WsxbYUjE-3" edge="1">
          <mxGeometry width="50" height="50" relative="1" as="geometry">
            <mxPoint x="464" y="299.58823529411757" as="sourcePoint"/>
            <mxPoint x="580" y="240" as="targetPoint"/>
          </mxGeometry>
        </mxCell>
        <mxCell id="guLUk-AVYRh-WsxbYUjE-6" value="&lt;p&gt;&lt;font style=&quot;font-size: 18px&quot;&gt;Safety-critical service process&lt;/font&gt;&lt;/p&gt;" style="rounded=1;whiteSpace=wrap;html=1;fillColor=none;dashed=1;strokeWidth=3;dashPattern=1 1;shadow=0;glass=0;comic=0;arcSize=31;" parent="guLUk-AVYRh-WsxbYUjE-1" vertex="1">
          <mxGeometry x="169" width="130" height="110" as="geometry"/>
        </mxCell>
        <mxCell id="guLUk-AVYRh-WsxbYUjE-7" value="TrustZone API (world switch + IPC)" style="rounded=0;whiteSpace=wrap;html=1;shadow=0;glass=0;comic=0;strokeWidth=2;fillColor=none;" parent="guLUk-AVYRh-WsxbYUjE-1" vertex="1">
          <mxGeometry x="4" y="165" width="460" height="50" as="geometry"/>
        </mxCell>
        <mxCell id="guLUk-AVYRh-WsxbYUjE-8" value="" style="endArrow=classic;startArrow=classic;html=1;strokeWidth=2;entryX=0.5;entryY=1;entryDx=0;entryDy=0;exitX=0.5;exitY=0;exitDx=0;exitDy=0;" parent="guLUk-AVYRh-WsxbYUjE-1" source="guLUk-AVYRh-WsxbYUjE-7" target="guLUk-AVYRh-WsxbYUjE-6" edge="1">
          <mxGeometry width="50" height="50" relative="1" as="geometry">
            <mxPoint x="299" y="289" as="sourcePoint"/>
            <mxPoint x="314" y="240" as="targetPoint"/>
          </mxGeometry>
        </mxCell>
        <mxCell id="5ZGrHB4PGSuwDvB5W56d-0" value="&lt;h1&gt;Architectural point of view&lt;/h1&gt;" style="text;html=1;strokeColor=none;fillColor=none;align=center;verticalAlign=middle;whiteSpace=wrap;rounded=0;dashed=1;dashPattern=1 1;" parent="C2O0bEbQHnN_CVEVgC66-1" vertex="1">
          <mxGeometry x="34" y="37" width="317" height="60" as="geometry"/>
        </mxCell>
        <mxCell id="2_IFS-tFmC7jg_cRSLRU-0" value="Normal world" style="rounded=0;whiteSpace=wrap;html=1;strokeWidth=2;fillColor=none;strokeColor=#000000;" parent="C2O0bEbQHnN_CVEVgC66-1" vertex="1">
          <mxGeometry x="367" y="255" width="70" height="75" as="geometry"/>
        </mxCell>
        <mxCell id="2_IFS-tFmC7jg_cRSLRU-1" value="Secure world" style="rounded=0;whiteSpace=wrap;html=1;strokeWidth=2;fillColor=none;strokeColor=#000000;" parent="C2O0bEbQHnN_CVEVgC66-1" vertex="1">
          <mxGeometry x="446" y="255" width="68" height="75" as="geometry"/>
        </mxCell>
        <mxCell id="2_IFS-tFmC7jg_cRSLRU-2" value="Monitor" style="rounded=0;whiteSpace=wrap;html=1;strokeColor=#000000;strokeWidth=2;fillColor=none;" parent="C2O0bEbQHnN_CVEVgC66-1" vertex="1">
          <mxGeometry x="367" y="382" width="150" height="30" as="geometry"/>
        </mxCell>
        <mxCell id="2_IFS-tFmC7jg_cRSLRU-3" value="&lt;p style=&quot;line-height: 110% ; font-size: 10px&quot;&gt;&lt;font style=&quot;font-size: 10px&quot;&gt;TrustZone API&lt;/font&gt;&lt;/p&gt;" style="rounded=0;whiteSpace=wrap;html=1;fillColor=none;strokeWidth=2;rotation=0;labelPosition=center;verticalLabelPosition=middle;align=center;verticalAlign=middle;spacingTop=-5;" parent="C2O0bEbQHnN_CVEVgC66-1" vertex="1">
          <mxGeometry x="366" y="342" width="150" height="27" as="geometry"/>
        </mxCell>
        <mxCell id="2_IFS-tFmC7jg_cRSLRU-4" value="&lt;p style=&quot;line-height: 110% ; font-size: 10px&quot;&gt;&lt;font style=&quot;font-size: 10px&quot;&gt;TrustZone API&lt;/font&gt;&lt;/p&gt;" style="rounded=0;whiteSpace=wrap;html=1;fillColor=none;strokeWidth=2;rotation=0;labelPosition=center;verticalLabelPosition=middle;align=center;verticalAlign=middle;spacingTop=-5;" parent="C2O0bEbQHnN_CVEVgC66-1" vertex="1">
          <mxGeometry x="597.5" y="341.5" width="150" height="27" as="geometry"/>
        </mxCell>
      </root>
    </mxGraphModel>
  </diagram>
  <diagram id="du2wl8PRNqKlmGDLuGuU" name="Page-3">
    <mxGraphModel dx="955" dy="805" grid="1" gridSize="10" guides="1" tooltips="1" connect="1" arrows="1" fold="1" page="1" pageScale="1" pageWidth="1169" pageHeight="827" math="0" shadow="0">
      <root>
        <mxCell id="wF2R2aZ4TPTUS98HeALk-0"/>
        <mxCell id="wF2R2aZ4TPTUS98HeALk-1" parent="wF2R2aZ4TPTUS98HeALk-0"/>
        <mxCell id="3nc5LZUcTe8MtWmnMfdh-0" value="" style="rounded=0;whiteSpace=wrap;html=1;fillColor=none;dashed=1;strokeWidth=3;fontSize=16;strokeColor=#FF0000;" parent="wF2R2aZ4TPTUS98HeALk-1" vertex="1">
          <mxGeometry x="23" y="83" width="537" height="387" as="geometry"/>
        </mxCell>
        <mxCell id="3nc5LZUcTe8MtWmnMfdh-1" value="" style="rounded=0;whiteSpace=wrap;html=1;fillColor=none;dashed=1;strokeWidth=3;dashPattern=1 1;fontSize=16;" parent="wF2R2aZ4TPTUS98HeALk-1" vertex="1">
          <mxGeometry x="63" y="119" width="190" height="324" as="geometry"/>
        </mxCell>
        <mxCell id="3nc5LZUcTe8MtWmnMfdh-3" value="" style="rounded=0;whiteSpace=wrap;html=1;fillColor=none;dashed=1;strokeWidth=3;dashPattern=1 1;fontSize=16;" parent="wF2R2aZ4TPTUS98HeALk-1" vertex="1">
          <mxGeometry x="332.5" y="118.5" width="190" height="324" as="geometry"/>
        </mxCell>
        <mxCell id="3nc5LZUcTe8MtWmnMfdh-4" value="&lt;h1 style=&quot;font-size: 20px&quot;&gt;Core 0&lt;br style=&quot;font-size: 16px&quot;&gt;&lt;/h1&gt;&lt;p style=&quot;font-size: 16px&quot;&gt;Redundant service&lt;br style=&quot;font-size: 16px&quot;&gt;&lt;/p&gt;" style="text;html=1;strokeColor=none;fillColor=none;spacing=5;spacingTop=-20;whiteSpace=wrap;overflow=hidden;rounded=0;dashed=1;fontSize=16;" parent="wF2R2aZ4TPTUS98HeALk-1" vertex="1">
          <mxGeometry x="83.5" y="127" width="120" height="80" as="geometry"/>
        </mxCell>
        <mxCell id="3nc5LZUcTe8MtWmnMfdh-6" value="&lt;h1 style=&quot;font-size: 20px&quot;&gt;Core 1&lt;br style=&quot;font-size: 16px&quot;&gt;&lt;/h1&gt;&lt;p style=&quot;font-size: 16px&quot;&gt;Main application and other processes&lt;br style=&quot;font-size: 16px&quot;&gt;&lt;/p&gt;" style="text;html=1;strokeColor=none;fillColor=none;spacing=5;spacingTop=-20;whiteSpace=wrap;overflow=hidden;rounded=0;dashed=1;fontSize=16;" parent="wF2R2aZ4TPTUS98HeALk-1" vertex="1">
          <mxGeometry x="351" y="134" width="160" height="95" as="geometry"/>
        </mxCell>
        <mxCell id="3nc5LZUcTe8MtWmnMfdh-7" value="Normal world" style="rounded=0;whiteSpace=wrap;html=1;strokeWidth=2;fillColor=none;strokeColor=#000000;fontSize=16;" parent="wF2R2aZ4TPTUS98HeALk-1" vertex="1">
          <mxGeometry x="83" y="220" width="70" height="80" as="geometry"/>
        </mxCell>
        <mxCell id="3nc5LZUcTe8MtWmnMfdh-8" value="Secure word" style="rounded=0;whiteSpace=wrap;html=1;strokeWidth=2;fillColor=none;strokeColor=#000000;fontSize=16;" parent="wF2R2aZ4TPTUS98HeALk-1" vertex="1">
          <mxGeometry x="164" y="220" width="70" height="80" as="geometry"/>
        </mxCell>
        <mxCell id="3nc5LZUcTe8MtWmnMfdh-12" value="Monitor" style="rounded=0;whiteSpace=wrap;html=1;strokeColor=#000000;strokeWidth=2;fillColor=none;fontSize=16;" parent="wF2R2aZ4TPTUS98HeALk-1" vertex="1">
          <mxGeometry x="83" y="342" width="150" height="30" as="geometry"/>
        </mxCell>
        <mxCell id="3nc5LZUcTe8MtWmnMfdh-15" value="L1 D" style="rounded=0;whiteSpace=wrap;html=1;strokeColor=#000000;strokeWidth=2;fillColor=none;fontSize=16;" parent="wF2R2aZ4TPTUS98HeALk-1" vertex="1">
          <mxGeometry x="83" y="383" width="70" height="40" as="geometry"/>
        </mxCell>
        <mxCell id="3nc5LZUcTe8MtWmnMfdh-16" value="L1 I" style="rounded=0;whiteSpace=wrap;html=1;strokeColor=#000000;strokeWidth=2;fillColor=none;fontSize=16;" parent="wF2R2aZ4TPTUS98HeALk-1" vertex="1">
          <mxGeometry x="163" y="383" width="70" height="40" as="geometry"/>
        </mxCell>
        <mxCell id="3nc5LZUcTe8MtWmnMfdh-19" value="L1 D" style="rounded=0;whiteSpace=wrap;html=1;strokeColor=#000000;strokeWidth=2;fillColor=none;fontSize=16;" parent="wF2R2aZ4TPTUS98HeALk-1" vertex="1">
          <mxGeometry x="350.5" y="389.5" width="70" height="40" as="geometry"/>
        </mxCell>
        <mxCell id="3nc5LZUcTe8MtWmnMfdh-20" value="L1 I" style="rounded=0;whiteSpace=wrap;html=1;strokeColor=#000000;strokeWidth=2;fillColor=none;fontSize=16;" parent="wF2R2aZ4TPTUS98HeALk-1" vertex="1">
          <mxGeometry x="430.5" y="389.5" width="70" height="40" as="geometry"/>
        </mxCell>
        <mxCell id="3nc5LZUcTe8MtWmnMfdh-21" value="Interrupt controller + Distributor" style="rounded=0;whiteSpace=wrap;html=1;strokeColor=#000000;strokeWidth=1;fillColor=none;fontSize=16;" parent="wF2R2aZ4TPTUS98HeALk-1" vertex="1">
          <mxGeometry x="299" y="519" width="190" height="60" as="geometry"/>
        </mxCell>
        <mxCell id="3nc5LZUcTe8MtWmnMfdh-22" value="" style="endArrow=classic;html=1;exitX=0.75;exitY=0;exitDx=0;exitDy=0;entryX=0.5;entryY=0;entryDx=0;entryDy=0;rounded=1;fontSize=16;" parent="wF2R2aZ4TPTUS98HeALk-1" source="3nc5LZUcTe8MtWmnMfdh-21" target="3nc5LZUcTe8MtWmnMfdh-1" edge="1">
          <mxGeometry width="50" height="50" relative="1" as="geometry">
            <mxPoint x="393" y="693" as="sourcePoint"/>
            <mxPoint x="443" y="643" as="targetPoint"/>
            <Array as="points">
              <mxPoint x="442" y="493"/>
              <mxPoint x="544" y="493"/>
              <mxPoint x="543" y="92"/>
              <mxPoint x="158" y="93"/>
            </Array>
          </mxGeometry>
        </mxCell>
        <mxCell id="3nc5LZUcTe8MtWmnMfdh-24" value="" style="endArrow=classic;html=1;entryX=0.5;entryY=0;entryDx=0;entryDy=0;fontSize=16;" parent="wF2R2aZ4TPTUS98HeALk-1" target="3nc5LZUcTe8MtWmnMfdh-3" edge="1">
          <mxGeometry width="50" height="50" relative="1" as="geometry">
            <mxPoint x="427" y="93" as="sourcePoint"/>
            <mxPoint x="205.5" y="135.5" as="targetPoint"/>
          </mxGeometry>
        </mxCell>
        <mxCell id="3nc5LZUcTe8MtWmnMfdh-25" value="Snoop Control Unit (access to memory)" style="rounded=0;whiteSpace=wrap;html=1;strokeColor=#000000;strokeWidth=1;fillColor=none;fontSize=16;" parent="wF2R2aZ4TPTUS98HeALk-1" vertex="1">
          <mxGeometry x="63" y="519" width="207" height="60" as="geometry"/>
        </mxCell>
        <mxCell id="3nc5LZUcTe8MtWmnMfdh-26" value="" style="endArrow=classic;startArrow=classic;html=1;exitX=0.5;exitY=0;exitDx=0;exitDy=0;entryX=0.5;entryY=1;entryDx=0;entryDy=0;rounded=0;strokeWidth=2;fontSize=16;" parent="wF2R2aZ4TPTUS98HeALk-1" source="3nc5LZUcTe8MtWmnMfdh-25" target="3nc5LZUcTe8MtWmnMfdh-15" edge="1">
          <mxGeometry width="50" height="50" relative="1" as="geometry">
            <mxPoint x="23" y="673" as="sourcePoint"/>
            <mxPoint x="73" y="623" as="targetPoint"/>
            <Array as="points">
              <mxPoint x="167" y="483"/>
              <mxPoint x="118" y="483"/>
            </Array>
          </mxGeometry>
        </mxCell>
        <mxCell id="3nc5LZUcTe8MtWmnMfdh-27" value="" style="endArrow=classic;startArrow=classic;html=1;exitX=0.5;exitY=0;exitDx=0;exitDy=0;entryX=0.5;entryY=1;entryDx=0;entryDy=0;rounded=0;strokeWidth=2;fontSize=16;" parent="wF2R2aZ4TPTUS98HeALk-1" source="3nc5LZUcTe8MtWmnMfdh-25" target="3nc5LZUcTe8MtWmnMfdh-16" edge="1">
          <mxGeometry width="50" height="50" relative="1" as="geometry">
            <mxPoint x="23" y="673" as="sourcePoint"/>
            <mxPoint x="73" y="623" as="targetPoint"/>
            <Array as="points">
              <mxPoint x="167" y="483"/>
              <mxPoint x="198" y="483"/>
            </Array>
          </mxGeometry>
        </mxCell>
        <mxCell id="3nc5LZUcTe8MtWmnMfdh-30" value="" style="endArrow=classic;startArrow=classic;html=1;strokeWidth=2;rounded=0;exitX=0.5;exitY=0;exitDx=0;exitDy=0;entryX=0.5;entryY=1;entryDx=0;entryDy=0;fontSize=16;" parent="wF2R2aZ4TPTUS98HeALk-1" source="3nc5LZUcTe8MtWmnMfdh-25" target="3nc5LZUcTe8MtWmnMfdh-19" edge="1">
          <mxGeometry width="50" height="50" relative="1" as="geometry">
            <mxPoint x="23" y="673" as="sourcePoint"/>
            <mxPoint x="73" y="623" as="targetPoint"/>
            <Array as="points">
              <mxPoint x="167" y="483"/>
              <mxPoint x="385" y="483"/>
            </Array>
          </mxGeometry>
        </mxCell>
        <mxCell id="3nc5LZUcTe8MtWmnMfdh-31" value="" style="endArrow=classic;startArrow=classic;html=1;strokeWidth=2;rounded=0;exitX=0.5;exitY=0;exitDx=0;exitDy=0;entryX=0.5;entryY=1;entryDx=0;entryDy=0;fontSize=16;" parent="wF2R2aZ4TPTUS98HeALk-1" source="3nc5LZUcTe8MtWmnMfdh-25" target="3nc5LZUcTe8MtWmnMfdh-20" edge="1">
          <mxGeometry width="50" height="50" relative="1" as="geometry">
            <mxPoint x="23" y="673" as="sourcePoint"/>
            <mxPoint x="73" y="623" as="targetPoint"/>
            <Array as="points">
              <mxPoint x="167" y="483"/>
              <mxPoint x="465" y="483"/>
            </Array>
          </mxGeometry>
        </mxCell>
        <mxCell id="3nc5LZUcTe8MtWmnMfdh-32" value="" style="endArrow=classic;startArrow=classic;html=1;strokeWidth=2;entryX=0.227;entryY=1.017;entryDx=0;entryDy=0;entryPerimeter=0;exitX=0.75;exitY=0;exitDx=0;exitDy=0;fontSize=16;" parent="wF2R2aZ4TPTUS98HeALk-1" source="3nc5LZUcTe8MtWmnMfdh-33" target="3nc5LZUcTe8MtWmnMfdh-25" edge="1">
          <mxGeometry width="50" height="50" relative="1" as="geometry">
            <mxPoint x="130" y="632" as="sourcePoint"/>
            <mxPoint x="73" y="623" as="targetPoint"/>
          </mxGeometry>
        </mxCell>
        <mxCell id="3nc5LZUcTe8MtWmnMfdh-33" value="L2 Cache" style="rounded=0;whiteSpace=wrap;html=1;strokeColor=#000000;strokeWidth=1;fillColor=none;fontSize=16;" parent="wF2R2aZ4TPTUS98HeALk-1" vertex="1">
          <mxGeometry x="30" y="643" width="107" height="60" as="geometry"/>
        </mxCell>
        <mxCell id="3nc5LZUcTe8MtWmnMfdh-34" value="AXS Bus" style="rounded=0;whiteSpace=wrap;html=1;strokeColor=#000000;strokeWidth=1;fillColor=none;fontSize=16;" parent="wF2R2aZ4TPTUS98HeALk-1" vertex="1">
          <mxGeometry x="159" y="643" width="118" height="60" as="geometry"/>
        </mxCell>
        <mxCell id="3nc5LZUcTe8MtWmnMfdh-35" value="" style="endArrow=classic;startArrow=classic;html=1;strokeWidth=2;entryX=0.75;entryY=1;entryDx=0;entryDy=0;exitX=0.5;exitY=0;exitDx=0;exitDy=0;fontSize=16;" parent="wF2R2aZ4TPTUS98HeALk-1" source="3nc5LZUcTe8MtWmnMfdh-34" target="3nc5LZUcTe8MtWmnMfdh-25" edge="1">
          <mxGeometry width="50" height="50" relative="1" as="geometry">
            <mxPoint x="288" y="633" as="sourcePoint"/>
            <mxPoint x="73" y="743" as="targetPoint"/>
          </mxGeometry>
        </mxCell>
        <mxCell id="Oe1pnhf7AKInOj-gbzTH-0" value="&lt;p style=&quot;line-height: 110%; font-size: 16px;&quot;&gt;&lt;font style=&quot;font-size: 16px;&quot;&gt;TrustZone API&lt;/font&gt;&lt;/p&gt;" style="rounded=0;whiteSpace=wrap;html=1;fillColor=none;strokeWidth=2;rotation=0;labelPosition=center;verticalLabelPosition=middle;align=center;verticalAlign=middle;spacingTop=-5;fontSize=16;" parent="wF2R2aZ4TPTUS98HeALk-1" vertex="1">
          <mxGeometry x="83" y="307" width="150" height="27" as="geometry"/>
        </mxCell>
        <mxCell id="BqFYcEk9njot1JBr_yLm-1" value="&lt;p style=&quot;font-size: 18px&quot;&gt;The system consist in a &quot;Main application&quot; that requires one or more safety-critical services to be run. An entire core is reserved for that purpose. This core execute two copy of the same service at the same time (same code) both in the Normal World and in the Secure World, then passes back the results of the two computations to the main application. The main application execute a vote upon the results to validate them: if they are the same, the result is accepted and used, otherwise it is refused and, depending on the critical level of the application, it may restart the services or may restart the entire system, possibly alerting human personnel.&lt;br&gt;On the core not reserved for services (the one of the main application) other software may be run that does not require usage of the TrustZone technology.&lt;br&gt;&lt;/p&gt;" style="text;html=1;strokeColor=none;fillColor=none;spacing=5;spacingTop=-20;whiteSpace=wrap;overflow=hidden;rounded=0;" parent="wF2R2aZ4TPTUS98HeALk-1" vertex="1">
          <mxGeometry x="602" y="57" width="530" height="323" as="geometry"/>
        </mxCell>
        <mxCell id="BiwzX4bD9ayCK3Lt0Fa0-0" value="&lt;h1 style=&quot;font-size: 23px&quot;&gt;&lt;font style=&quot;font-size: 23px&quot;&gt;Interprocess communication over different world&lt;br&gt;&lt;/font&gt;&lt;/h1&gt;" style="text;html=1;strokeColor=none;fillColor=none;align=center;verticalAlign=middle;whiteSpace=wrap;rounded=0;dashed=1;dashPattern=1 1;" parent="wF2R2aZ4TPTUS98HeALk-1" vertex="1">
          <mxGeometry x="568" y="386" width="590" height="60" as="geometry"/>
        </mxCell>
        <mxCell id="BiwzX4bD9ayCK3Lt0Fa0-1" value="" style="group;container=1;" parent="wF2R2aZ4TPTUS98HeALk-1" vertex="1" connectable="0">
          <mxGeometry x="628" y="475.5" width="470" height="215" as="geometry"/>
        </mxCell>
        <mxCell id="BiwzX4bD9ayCK3Lt0Fa0-2" value="&lt;p&gt;&lt;font style=&quot;font-size: 18px&quot;&gt;Safety-critical service process&lt;/font&gt;&lt;/p&gt;" style="rounded=1;whiteSpace=wrap;html=1;fillColor=none;dashed=1;strokeWidth=3;dashPattern=1 1;shadow=0;glass=0;comic=0;arcSize=31;" parent="BiwzX4bD9ayCK3Lt0Fa0-1" vertex="1">
          <mxGeometry width="127" height="110" as="geometry"/>
        </mxCell>
        <mxCell id="BiwzX4bD9ayCK3Lt0Fa0-3" value="&lt;p&gt;&lt;font style=&quot;font-size: 18px&quot;&gt;Main application process&lt;br&gt;&lt;/font&gt;&lt;/p&gt;" style="rounded=1;whiteSpace=wrap;html=1;fillColor=none;dashed=1;strokeWidth=3;dashPattern=1 1;shadow=0;glass=0;comic=0;arcSize=31;" parent="BiwzX4bD9ayCK3Lt0Fa0-1" vertex="1">
          <mxGeometry x="340" width="130" height="110" as="geometry"/>
        </mxCell>
        <mxCell id="BiwzX4bD9ayCK3Lt0Fa0-4" value="" style="endArrow=classic;startArrow=classic;html=1;strokeWidth=2;entryX=0.5;entryY=1;entryDx=0;entryDy=0;exitX=0.13;exitY=0.021;exitDx=0;exitDy=0;exitPerimeter=0;" parent="BiwzX4bD9ayCK3Lt0Fa0-1" source="BiwzX4bD9ayCK3Lt0Fa0-7" target="BiwzX4bD9ayCK3Lt0Fa0-2" edge="1">
          <mxGeometry width="50" height="50" relative="1" as="geometry">
            <mxPoint x="126" y="270" as="sourcePoint"/>
            <mxPoint x="160" y="450" as="targetPoint"/>
          </mxGeometry>
        </mxCell>
        <mxCell id="BiwzX4bD9ayCK3Lt0Fa0-5" value="" style="endArrow=classic;startArrow=classic;html=1;strokeWidth=2;exitX=0.872;exitY=-0.026;exitDx=0;exitDy=0;exitPerimeter=0;entryX=0.5;entryY=1;entryDx=0;entryDy=0;" parent="BiwzX4bD9ayCK3Lt0Fa0-1" source="BiwzX4bD9ayCK3Lt0Fa0-7" target="BiwzX4bD9ayCK3Lt0Fa0-3" edge="1">
          <mxGeometry width="50" height="50" relative="1" as="geometry">
            <mxPoint x="464" y="299.58823529411757" as="sourcePoint"/>
            <mxPoint x="580" y="240" as="targetPoint"/>
          </mxGeometry>
        </mxCell>
        <mxCell id="BiwzX4bD9ayCK3Lt0Fa0-6" value="&lt;p&gt;&lt;font style=&quot;font-size: 18px&quot;&gt;Safety-critical service process&lt;/font&gt;&lt;/p&gt;" style="rounded=1;whiteSpace=wrap;html=1;fillColor=none;dashed=1;strokeWidth=3;dashPattern=1 1;shadow=0;glass=0;comic=0;arcSize=31;" parent="BiwzX4bD9ayCK3Lt0Fa0-1" vertex="1">
          <mxGeometry x="169" width="130" height="110" as="geometry"/>
        </mxCell>
        <mxCell id="BiwzX4bD9ayCK3Lt0Fa0-7" value="&lt;font style=&quot;font-size: 20px&quot;&gt;TrustZone API (world switch + IPC)&lt;/font&gt;" style="rounded=0;whiteSpace=wrap;html=1;shadow=0;glass=0;comic=0;strokeWidth=2;fillColor=none;" parent="BiwzX4bD9ayCK3Lt0Fa0-1" vertex="1">
          <mxGeometry x="4" y="165" width="460" height="50" as="geometry"/>
        </mxCell>
        <mxCell id="BiwzX4bD9ayCK3Lt0Fa0-8" value="" style="endArrow=classic;startArrow=classic;html=1;strokeWidth=2;entryX=0.5;entryY=1;entryDx=0;entryDy=0;exitX=0.5;exitY=0;exitDx=0;exitDy=0;" parent="BiwzX4bD9ayCK3Lt0Fa0-1" source="BiwzX4bD9ayCK3Lt0Fa0-7" target="BiwzX4bD9ayCK3Lt0Fa0-6" edge="1">
          <mxGeometry width="50" height="50" relative="1" as="geometry">
            <mxPoint x="299" y="289" as="sourcePoint"/>
            <mxPoint x="314" y="240" as="targetPoint"/>
          </mxGeometry>
        </mxCell>
        <mxCell id="BiwzX4bD9ayCK3Lt0Fa0-9" value="Normal world" style="rounded=0;whiteSpace=wrap;html=1;strokeWidth=2;fillColor=none;strokeColor=#000000;fontSize=16;" parent="wF2R2aZ4TPTUS98HeALk-1" vertex="1">
          <mxGeometry x="350.5" y="226.5" width="70" height="80" as="geometry"/>
        </mxCell>
        <mxCell id="BiwzX4bD9ayCK3Lt0Fa0-10" value="Secure word" style="rounded=0;whiteSpace=wrap;html=1;strokeWidth=2;fillColor=none;strokeColor=#000000;fontSize=16;" parent="wF2R2aZ4TPTUS98HeALk-1" vertex="1">
          <mxGeometry x="431.5" y="226.5" width="70" height="80" as="geometry"/>
        </mxCell>
        <mxCell id="BiwzX4bD9ayCK3Lt0Fa0-11" value="Monitor" style="rounded=0;whiteSpace=wrap;html=1;strokeColor=#000000;strokeWidth=2;fillColor=none;fontSize=16;" parent="wF2R2aZ4TPTUS98HeALk-1" vertex="1">
          <mxGeometry x="350.5" y="348.5" width="150" height="30" as="geometry"/>
        </mxCell>
        <mxCell id="BiwzX4bD9ayCK3Lt0Fa0-12" value="&lt;p style=&quot;line-height: 110%; font-size: 16px;&quot;&gt;&lt;font style=&quot;font-size: 16px;&quot;&gt;TrustZone API&lt;/font&gt;&lt;/p&gt;" style="rounded=0;whiteSpace=wrap;html=1;fillColor=none;strokeWidth=2;rotation=0;labelPosition=center;verticalLabelPosition=middle;align=center;verticalAlign=middle;spacingTop=-5;fontSize=16;" parent="wF2R2aZ4TPTUS98HeALk-1" vertex="1">
          <mxGeometry x="350.5" y="313.5" width="150" height="27" as="geometry"/>
        </mxCell>
        <mxCell id="BiwzX4bD9ayCK3Lt0Fa0-15" value="" style="shape=flexArrow;endArrow=classic;startArrow=classic;html=1;edgeStyle=entityRelationEdgeStyle;width=5;endSize=6.833333333333333;entryX=-0.016;entryY=0.822;entryDx=0;entryDy=0;entryPerimeter=0;exitX=1.012;exitY=0.342;exitDx=0;exitDy=0;exitPerimeter=0;startSize=6.833333333333333;fontSize=16;" parent="wF2R2aZ4TPTUS98HeALk-1" source="3nc5LZUcTe8MtWmnMfdh-1" target="3nc5LZUcTe8MtWmnMfdh-3" edge="1">
          <mxGeometry width="50" height="50" relative="1" as="geometry">
            <mxPoint x="20" y="842" as="sourcePoint"/>
            <mxPoint x="350" y="762" as="targetPoint"/>
          </mxGeometry>
        </mxCell>
        <mxCell id="BiwzX4bD9ayCK3Lt0Fa0-16" value="&lt;div style=&quot;font-size: 16px;&quot; align=&quot;center&quot;&gt;Results to be voted&lt;/div&gt;&lt;div style=&quot;font-size: 16px;&quot; align=&quot;center&quot;&gt;&lt;br style=&quot;font-size: 16px;&quot;&gt;&lt;/div&gt;" style="text;html=1;align=center;verticalAlign=top;whiteSpace=wrap;rounded=0;fillColor=#ffffff;fontSize=16;" parent="wF2R2aZ4TPTUS98HeALk-1" vertex="1">
          <mxGeometry x="268" y="284" width="47" height="77" as="geometry"/>
        </mxCell>
        <mxCell id="zJO4NlGBgFBqzs2-Fawg-0" value="&lt;div style=&quot;font-size: 28px&quot;&gt;&lt;b&gt;&lt;font style=&quot;font-size: 28px&quot;&gt;Architectural point of vie&lt;/font&gt;w&lt;/b&gt;&lt;/div&gt;" style="text;html=1;resizable=1;points=[];autosize=1;align=left;verticalAlign=top;spacingTop=-4;imageAspect=1;" parent="wF2R2aZ4TPTUS98HeALk-1" vertex="1">
          <mxGeometry x="23" y="20" width="370" height="20" as="geometry"/>
        </mxCell>
        <mxCell id="zJO4NlGBgFBqzs2-Fawg-5" value="" style="endArrow=classic;startArrow=classic;html=1;entryX=0.5;entryY=1;entryDx=0;entryDy=0;strokeWidth=2;exitX=0.5;exitY=0;exitDx=0;exitDy=0;fontSize=16;" parent="wF2R2aZ4TPTUS98HeALk-1" source="zJO4NlGBgFBqzs2-Fawg-6" target="3nc5LZUcTe8MtWmnMfdh-21" edge="1">
          <mxGeometry width="50" height="50" relative="1" as="geometry">
            <mxPoint x="395" y="650" as="sourcePoint"/>
            <mxPoint x="70" y="810" as="targetPoint"/>
          </mxGeometry>
        </mxCell>
        <mxCell id="zJO4NlGBgFBqzs2-Fawg-6" value="&lt;font style=&quot;font-size: 16px&quot;&gt;External sources of interrupts&lt;/font&gt;" style="text;html=1;strokeColor=none;fillColor=none;align=center;verticalAlign=middle;whiteSpace=wrap;rounded=0;fontSize=16;" parent="wF2R2aZ4TPTUS98HeALk-1" vertex="1">
          <mxGeometry x="299" y="656.5" width="190" height="30" as="geometry"/>
        </mxCell>
        <mxCell id="ampj8BjmzUa5rK3adrpx-0" value="&lt;b&gt;&lt;font color=&quot;#FF0000&quot;&gt;Interfaccia&lt;/font&gt;&lt;/b&gt;" style="text;html=1;align=center;verticalAlign=middle;whiteSpace=wrap;rounded=0;" parent="wF2R2aZ4TPTUS98HeALk-1" vertex="1">
          <mxGeometry x="511" y="50" width="40" height="20" as="geometry"/>
        </mxCell>
      </root>
    </mxGraphModel>
  </diagram>
  <diagram id="QdeyNyHYrJhu_SOc-6ir" name="Page-5">
    <mxGraphModel dx="1673" dy="879" grid="1" gridSize="10" guides="1" tooltips="1" connect="1" arrows="1" fold="1" page="1" pageScale="1" pageWidth="1100" pageHeight="850" background="none" backgroundImage="{&quot;src&quot;:&quot;https://it.wikipedia.org/wiki/Sergio_Mattarella#/media/File:Presidente_Sergio_Mattarella.jpg&quot;,&quot;width&quot;:&quot;&quot;,&quot;height&quot;:&quot;&quot;}" math="0" shadow="0">
      <root>
        <mxCell id="mj4GtjVufNiis1bke-Jx-0"/>
        <mxCell id="mj4GtjVufNiis1bke-Jx-1" parent="mj4GtjVufNiis1bke-Jx-0"/>
        <mxCell id="mj4GtjVufNiis1bke-Jx-2" value="" style="rounded=0;whiteSpace=wrap;html=1;fillColor=none;dashed=1;strokeWidth=3;fontSize=16;strokeColor=#FF0000;" vertex="1" parent="mj4GtjVufNiis1bke-Jx-1">
          <mxGeometry x="23" y="69" width="1057" height="551" as="geometry"/>
        </mxCell>
        <mxCell id="mj4GtjVufNiis1bke-Jx-3" value="" style="rounded=0;whiteSpace=wrap;html=1;fillColor=none;dashed=1;strokeWidth=3;dashPattern=1 1;fontSize=16;" vertex="1" parent="mj4GtjVufNiis1bke-Jx-1">
          <mxGeometry x="63" y="119" width="477" height="481" as="geometry"/>
        </mxCell>
        <mxCell id="mj4GtjVufNiis1bke-Jx-4" value="" style="rounded=0;whiteSpace=wrap;html=1;fillColor=none;dashed=1;strokeWidth=3;dashPattern=1 1;fontSize=16;" vertex="1" parent="mj4GtjVufNiis1bke-Jx-1">
          <mxGeometry x="560" y="119" width="490" height="481" as="geometry"/>
        </mxCell>
        <mxCell id="mj4GtjVufNiis1bke-Jx-5" value="&lt;h1 style=&quot;font-size: 20px&quot;&gt;Core 0&lt;br style=&quot;font-size: 16px&quot;&gt;&lt;/h1&gt;&lt;p style=&quot;font-size: 16px&quot;&gt;Redundant service&lt;br style=&quot;font-size: 16px&quot;&gt;&lt;/p&gt;" style="text;html=1;strokeColor=none;fillColor=none;spacing=5;spacingTop=-20;whiteSpace=wrap;overflow=hidden;rounded=0;dashed=1;fontSize=16;" vertex="1" parent="mj4GtjVufNiis1bke-Jx-1">
          <mxGeometry x="83.5" y="127" width="120" height="80" as="geometry"/>
        </mxCell>
        <mxCell id="mj4GtjVufNiis1bke-Jx-6" value="&lt;h1 style=&quot;font-size: 20px&quot;&gt;Core 1&lt;br style=&quot;font-size: 16px&quot;&gt;&lt;/h1&gt;&lt;p style=&quot;font-size: 16px&quot;&gt;Main application and other processes&lt;br style=&quot;font-size: 16px&quot;&gt;&lt;/p&gt;" style="text;html=1;strokeColor=none;fillColor=none;spacing=5;spacingTop=-20;whiteSpace=wrap;overflow=hidden;rounded=0;dashed=1;fontSize=16;" vertex="1" parent="mj4GtjVufNiis1bke-Jx-1">
          <mxGeometry x="879" y="134.5" width="160" height="95" as="geometry"/>
        </mxCell>
        <mxCell id="mj4GtjVufNiis1bke-Jx-7" value="&lt;div align=&quot;center&quot;&gt;&lt;br&gt;&lt;/div&gt;" style="rounded=0;whiteSpace=wrap;html=1;strokeWidth=2;fillColor=none;strokeColor=#000000;fontSize=16;align=center;" vertex="1" parent="mj4GtjVufNiis1bke-Jx-1">
          <mxGeometry x="73" y="220" width="217" height="100" as="geometry"/>
        </mxCell>
        <mxCell id="mj4GtjVufNiis1bke-Jx-9" value="" style="rounded=0;whiteSpace=wrap;html=1;strokeColor=#000000;strokeWidth=2;fillColor=none;fontSize=16;" vertex="1" parent="mj4GtjVufNiis1bke-Jx-1">
          <mxGeometry x="81" y="460" width="450" height="47" as="geometry"/>
        </mxCell>
        <mxCell id="mj4GtjVufNiis1bke-Jx-10" value="L1 D" style="rounded=0;whiteSpace=wrap;html=1;strokeColor=#000000;strokeWidth=2;fillColor=none;fontSize=16;" vertex="1" parent="mj4GtjVufNiis1bke-Jx-1">
          <mxGeometry x="81" y="550" width="77" height="40" as="geometry"/>
        </mxCell>
        <mxCell id="mj4GtjVufNiis1bke-Jx-11" value="L1 I" style="rounded=0;whiteSpace=wrap;html=1;strokeColor=#000000;strokeWidth=2;fillColor=none;fontSize=16;" vertex="1" parent="mj4GtjVufNiis1bke-Jx-1">
          <mxGeometry x="459" y="550" width="70" height="40" as="geometry"/>
        </mxCell>
        <mxCell id="mj4GtjVufNiis1bke-Jx-12" value="L1 D" style="rounded=0;whiteSpace=wrap;html=1;strokeColor=#000000;strokeWidth=2;fillColor=none;fontSize=16;" vertex="1" parent="mj4GtjVufNiis1bke-Jx-1">
          <mxGeometry x="610" y="550" width="70" height="40" as="geometry"/>
        </mxCell>
        <mxCell id="mj4GtjVufNiis1bke-Jx-13" value="L1 I" style="rounded=0;whiteSpace=wrap;html=1;strokeColor=#000000;strokeWidth=2;fillColor=none;fontSize=16;" vertex="1" parent="mj4GtjVufNiis1bke-Jx-1">
          <mxGeometry x="969" y="550" width="70" height="40" as="geometry"/>
        </mxCell>
        <mxCell id="mj4GtjVufNiis1bke-Jx-14" value="Interrupt controller + Distributor" style="rounded=0;whiteSpace=wrap;html=1;strokeColor=#000000;strokeWidth=1;fillColor=none;fontSize=16;" vertex="1" parent="mj4GtjVufNiis1bke-Jx-1">
          <mxGeometry x="599" y="656.5" width="190" height="60" as="geometry"/>
        </mxCell>
        <mxCell id="mj4GtjVufNiis1bke-Jx-15" value="" style="endArrow=classic;html=1;exitX=0.75;exitY=0;exitDx=0;exitDy=0;entryX=0.5;entryY=0;entryDx=0;entryDy=0;rounded=1;fontSize=16;" edge="1" parent="mj4GtjVufNiis1bke-Jx-1" source="mj4GtjVufNiis1bke-Jx-14" target="mj4GtjVufNiis1bke-Jx-3">
          <mxGeometry width="50" height="50" relative="1" as="geometry">
            <mxPoint x="393" y="693" as="sourcePoint"/>
            <mxPoint x="443" y="643" as="targetPoint"/>
            <Array as="points">
              <mxPoint x="742" y="640"/>
              <mxPoint x="1070" y="640"/>
              <mxPoint x="1070" y="90"/>
              <mxPoint x="301" y="90"/>
            </Array>
          </mxGeometry>
        </mxCell>
        <mxCell id="mj4GtjVufNiis1bke-Jx-16" value="" style="endArrow=classic;html=1;entryX=0.5;entryY=0;entryDx=0;entryDy=0;fontSize=16;" edge="1" parent="mj4GtjVufNiis1bke-Jx-1" target="mj4GtjVufNiis1bke-Jx-4">
          <mxGeometry width="50" height="50" relative="1" as="geometry">
            <mxPoint x="805" y="90" as="sourcePoint"/>
            <mxPoint x="205.5" y="135.5" as="targetPoint"/>
          </mxGeometry>
        </mxCell>
        <mxCell id="mj4GtjVufNiis1bke-Jx-17" value="Snoop Control Unit (access to memory)" style="rounded=0;whiteSpace=wrap;html=1;strokeColor=#000000;strokeWidth=1;fillColor=none;fontSize=16;" vertex="1" parent="mj4GtjVufNiis1bke-Jx-1">
          <mxGeometry x="363" y="656.5" width="207" height="60" as="geometry"/>
        </mxCell>
        <mxCell id="mj4GtjVufNiis1bke-Jx-21" value="" style="endArrow=classic;startArrow=classic;html=1;strokeWidth=2;rounded=0;exitX=0.5;exitY=0;exitDx=0;exitDy=0;entryX=0.5;entryY=1;entryDx=0;entryDy=0;fontSize=16;" edge="1" parent="mj4GtjVufNiis1bke-Jx-1" source="mj4GtjVufNiis1bke-Jx-17" target="mj4GtjVufNiis1bke-Jx-13">
          <mxGeometry width="50" height="50" relative="1" as="geometry">
            <mxPoint x="23" y="673" as="sourcePoint"/>
            <mxPoint x="73" y="623" as="targetPoint"/>
            <Array as="points">
              <mxPoint x="467" y="630"/>
              <mxPoint x="1004" y="630"/>
            </Array>
          </mxGeometry>
        </mxCell>
        <mxCell id="mj4GtjVufNiis1bke-Jx-22" value="" style="endArrow=classic;startArrow=classic;html=1;strokeWidth=2;entryX=0.227;entryY=1.017;entryDx=0;entryDy=0;entryPerimeter=0;exitX=0.75;exitY=0;exitDx=0;exitDy=0;fontSize=16;" edge="1" parent="mj4GtjVufNiis1bke-Jx-1" source="mj4GtjVufNiis1bke-Jx-23" target="mj4GtjVufNiis1bke-Jx-17">
          <mxGeometry width="50" height="50" relative="1" as="geometry">
            <mxPoint x="430" y="769.5" as="sourcePoint"/>
            <mxPoint x="373" y="760.5" as="targetPoint"/>
          </mxGeometry>
        </mxCell>
        <mxCell id="mj4GtjVufNiis1bke-Jx-23" value="L2 Cache" style="rounded=0;whiteSpace=wrap;html=1;strokeColor=#000000;strokeWidth=1;fillColor=none;fontSize=16;" vertex="1" parent="mj4GtjVufNiis1bke-Jx-1">
          <mxGeometry x="330" y="780.5" width="107" height="60" as="geometry"/>
        </mxCell>
        <mxCell id="mj4GtjVufNiis1bke-Jx-24" value="AXS Bus" style="rounded=0;whiteSpace=wrap;html=1;strokeColor=#000000;strokeWidth=1;fillColor=none;fontSize=16;" vertex="1" parent="mj4GtjVufNiis1bke-Jx-1">
          <mxGeometry x="459" y="780.5" width="118" height="60" as="geometry"/>
        </mxCell>
        <mxCell id="mj4GtjVufNiis1bke-Jx-25" value="" style="endArrow=classic;startArrow=classic;html=1;strokeWidth=2;entryX=0.75;entryY=1;entryDx=0;entryDy=0;exitX=0.5;exitY=0;exitDx=0;exitDy=0;fontSize=16;" edge="1" parent="mj4GtjVufNiis1bke-Jx-1" source="mj4GtjVufNiis1bke-Jx-24" target="mj4GtjVufNiis1bke-Jx-17">
          <mxGeometry width="50" height="50" relative="1" as="geometry">
            <mxPoint x="588" y="770.5" as="sourcePoint"/>
            <mxPoint x="373" y="880.5" as="targetPoint"/>
          </mxGeometry>
        </mxCell>
        <mxCell id="mj4GtjVufNiis1bke-Jx-26" value="&lt;p style=&quot;line-height: 110% ; font-size: 16px&quot;&gt;&lt;font style=&quot;font-size: 16px&quot;&gt;TrustZone API&lt;/font&gt;&lt;/p&gt;&lt;div&gt;&lt;br&gt;&lt;/div&gt;&lt;div&gt;&lt;br&gt;&lt;/div&gt;" style="rounded=0;whiteSpace=wrap;html=1;fillColor=none;strokeWidth=2;rotation=0;labelPosition=center;verticalLabelPosition=middle;align=center;verticalAlign=middle;spacingTop=-5;fontSize=16;" vertex="1" parent="mj4GtjVufNiis1bke-Jx-1">
          <mxGeometry x="80" y="360" width="450" height="58" as="geometry"/>
        </mxCell>
        <mxCell id="mj4GtjVufNiis1bke-Jx-33" value="" style="endArrow=classic;startArrow=classic;html=1;entryX=0.5;entryY=1;entryDx=0;entryDy=0;strokeWidth=2;exitX=0.5;exitY=0;exitDx=0;exitDy=0;fontSize=16;" edge="1" parent="mj4GtjVufNiis1bke-Jx-1" source="mj4GtjVufNiis1bke-Jx-34" target="mj4GtjVufNiis1bke-Jx-14">
          <mxGeometry width="50" height="50" relative="1" as="geometry">
            <mxPoint x="695" y="787.5" as="sourcePoint"/>
            <mxPoint x="370" y="947.5" as="targetPoint"/>
          </mxGeometry>
        </mxCell>
        <mxCell id="mj4GtjVufNiis1bke-Jx-34" value="&lt;font style=&quot;font-size: 16px&quot;&gt;External sources of interrupts&lt;/font&gt;" style="text;html=1;strokeColor=none;fillColor=none;align=center;verticalAlign=middle;whiteSpace=wrap;rounded=0;fontSize=16;" vertex="1" parent="mj4GtjVufNiis1bke-Jx-1">
          <mxGeometry x="599" y="794" width="190" height="30" as="geometry"/>
        </mxCell>
        <mxCell id="mj4GtjVufNiis1bke-Jx-35" value="&lt;font style=&quot;font-size: 22px&quot;&gt;&lt;b&gt;&lt;font style=&quot;font-size: 22px&quot; color=&quot;#FF0000&quot;&gt;Interfaccia&lt;/font&gt;&lt;/b&gt;&lt;/font&gt;" style="text;html=1;align=center;verticalAlign=middle;whiteSpace=wrap;rounded=0;fillColor=#ffffff;comic=0;shadow=0;glass=0;" vertex="1" parent="mj4GtjVufNiis1bke-Jx-1">
          <mxGeometry x="54" y="59" width="126" height="20" as="geometry"/>
        </mxCell>
        <mxCell id="mj4GtjVufNiis1bke-Jx-45" value="" style="endArrow=classic;startArrow=none;html=1;strokeWidth=2;entryX=0.5;entryY=1;entryDx=0;entryDy=0;fontSize=16;endFill=1;startFill=0;" edge="1" parent="mj4GtjVufNiis1bke-Jx-1" target="mj4GtjVufNiis1bke-Jx-11">
          <mxGeometry width="50" height="50" relative="1" as="geometry">
            <mxPoint x="494" y="630" as="sourcePoint"/>
            <mxPoint x="528.25" y="726.5" as="targetPoint"/>
          </mxGeometry>
        </mxCell>
        <mxCell id="mj4GtjVufNiis1bke-Jx-46" value="" style="endArrow=classic;startArrow=none;html=1;strokeWidth=2;entryX=0.5;entryY=1;entryDx=0;entryDy=0;fontSize=16;endFill=1;startFill=0;" edge="1" parent="mj4GtjVufNiis1bke-Jx-1" target="mj4GtjVufNiis1bke-Jx-12">
          <mxGeometry width="50" height="50" relative="1" as="geometry">
            <mxPoint x="645" y="630" as="sourcePoint"/>
            <mxPoint x="504" y="600" as="targetPoint"/>
          </mxGeometry>
        </mxCell>
        <mxCell id="mj4GtjVufNiis1bke-Jx-47" value="" style="endArrow=classic;startArrow=none;html=1;strokeWidth=2;entryX=0.5;entryY=1;entryDx=0;entryDy=0;fontSize=16;endFill=1;startFill=0;" edge="1" parent="mj4GtjVufNiis1bke-Jx-1" target="mj4GtjVufNiis1bke-Jx-10">
          <mxGeometry width="50" height="50" relative="1" as="geometry">
            <mxPoint x="120" y="630" as="sourcePoint"/>
            <mxPoint x="655" y="600" as="targetPoint"/>
          </mxGeometry>
        </mxCell>
        <mxCell id="mj4GtjVufNiis1bke-Jx-48" value="" style="endArrow=none;startArrow=none;html=1;strokeWidth=2;fontSize=16;endFill=0;startFill=0;" edge="1" parent="mj4GtjVufNiis1bke-Jx-1">
          <mxGeometry width="50" height="50" relative="1" as="geometry">
            <mxPoint x="470" y="630" as="sourcePoint"/>
            <mxPoint x="119" y="630" as="targetPoint"/>
          </mxGeometry>
        </mxCell>
        <mxCell id="mj4GtjVufNiis1bke-Jx-51" value="comunicazione interprocessi" style="ellipse;whiteSpace=wrap;html=1;rounded=0;shadow=0;glass=0;comic=0;strokeColor=#000000;fillColor=none;gradientColor=none;" vertex="1" parent="mj4GtjVufNiis1bke-Jx-1">
          <mxGeometry x="90" y="380" width="210" height="30" as="geometry"/>
        </mxCell>
        <mxCell id="mj4GtjVufNiis1bke-Jx-52" value="calcolo riusltato" style="ellipse;whiteSpace=wrap;html=1;rounded=0;shadow=0;glass=0;comic=0;strokeColor=#000000;fillColor=none;gradientColor=none;" vertex="1" parent="mj4GtjVufNiis1bke-Jx-1">
          <mxGeometry x="80" y="252" width="201" height="30" as="geometry"/>
        </mxCell>
        <mxCell id="mj4GtjVufNiis1bke-Jx-53" value="invio risultato" style="ellipse;whiteSpace=wrap;html=1;rounded=0;shadow=0;glass=0;comic=0;strokeColor=#000000;fillColor=none;gradientColor=none;" vertex="1" parent="mj4GtjVufNiis1bke-Jx-1">
          <mxGeometry x="79.5" y="287" width="201" height="30" as="geometry"/>
        </mxCell>
        <mxCell id="mj4GtjVufNiis1bke-Jx-54" value="&lt;b&gt;Normal World&lt;/b&gt;" style="text;html=1;strokeColor=none;fillColor=none;align=center;verticalAlign=middle;whiteSpace=wrap;rounded=0;shadow=0;glass=0;comic=0;" vertex="1" parent="mj4GtjVufNiis1bke-Jx-1">
          <mxGeometry x="73" y="227" width="217" height="20" as="geometry"/>
        </mxCell>
        <mxCell id="mj4GtjVufNiis1bke-Jx-56" value="&lt;div align=&quot;center&quot;&gt;&lt;br&gt;&lt;/div&gt;" style="rounded=0;whiteSpace=wrap;html=1;strokeWidth=2;fillColor=none;strokeColor=#000000;fontSize=16;align=center;" vertex="1" parent="mj4GtjVufNiis1bke-Jx-1">
          <mxGeometry x="312" y="220" width="217" height="100" as="geometry"/>
        </mxCell>
        <mxCell id="mj4GtjVufNiis1bke-Jx-57" value="calcolo riusltato" style="ellipse;whiteSpace=wrap;html=1;rounded=0;shadow=0;glass=0;comic=0;strokeColor=#000000;fillColor=none;gradientColor=none;" vertex="1" parent="mj4GtjVufNiis1bke-Jx-1">
          <mxGeometry x="319" y="252" width="201" height="30" as="geometry"/>
        </mxCell>
        <mxCell id="mj4GtjVufNiis1bke-Jx-58" value="invio risultato" style="ellipse;whiteSpace=wrap;html=1;rounded=0;shadow=0;glass=0;comic=0;strokeColor=#000000;fillColor=none;gradientColor=none;" vertex="1" parent="mj4GtjVufNiis1bke-Jx-1">
          <mxGeometry x="318.5" y="287" width="201" height="30" as="geometry"/>
        </mxCell>
        <mxCell id="mj4GtjVufNiis1bke-Jx-59" value="&lt;b&gt;Secure World&lt;/b&gt;" style="text;html=1;strokeColor=none;fillColor=none;align=center;verticalAlign=middle;whiteSpace=wrap;rounded=0;shadow=0;glass=0;comic=0;" vertex="1" parent="mj4GtjVufNiis1bke-Jx-1">
          <mxGeometry x="312" y="227" width="217" height="20" as="geometry"/>
        </mxCell>
        <mxCell id="mj4GtjVufNiis1bke-Jx-60" value="&lt;div align=&quot;center&quot;&gt;&lt;br&gt;&lt;/div&gt;" style="rounded=0;whiteSpace=wrap;html=1;strokeWidth=2;fillColor=none;strokeColor=#000000;fontSize=16;align=center;" vertex="1" parent="mj4GtjVufNiis1bke-Jx-1">
          <mxGeometry x="570" y="220" width="217" height="100" as="geometry"/>
        </mxCell>
        <mxCell id="mj4GtjVufNiis1bke-Jx-61" value="lancio servizio" style="ellipse;whiteSpace=wrap;html=1;rounded=0;shadow=0;glass=0;comic=0;strokeColor=#000000;fillColor=none;gradientColor=none;" vertex="1" parent="mj4GtjVufNiis1bke-Jx-1">
          <mxGeometry x="578" y="270" width="201" height="30" as="geometry"/>
        </mxCell>
        <mxCell id="mj4GtjVufNiis1bke-Jx-63" value="&lt;div&gt;&lt;b&gt;Normal World&lt;/b&gt;&lt;/div&gt;&lt;b&gt;Applicazione&lt;/b&gt;" style="text;html=1;strokeColor=none;fillColor=none;align=center;verticalAlign=middle;whiteSpace=wrap;rounded=0;shadow=0;glass=0;comic=0;" vertex="1" parent="mj4GtjVufNiis1bke-Jx-1">
          <mxGeometry x="570" y="227" width="217" height="20" as="geometry"/>
        </mxCell>
        <mxCell id="mj4GtjVufNiis1bke-Jx-64" value="&lt;div align=&quot;center&quot;&gt;&lt;br&gt;&lt;/div&gt;" style="rounded=0;whiteSpace=wrap;html=1;strokeWidth=2;fillColor=none;strokeColor=#000000;fontSize=16;align=center;" vertex="1" parent="mj4GtjVufNiis1bke-Jx-1">
          <mxGeometry x="809" y="220" width="217" height="100" as="geometry"/>
        </mxCell>
        <mxCell id="mj4GtjVufNiis1bke-Jx-66" value="voto risultati" style="ellipse;whiteSpace=wrap;html=1;rounded=0;shadow=0;glass=0;comic=0;strokeColor=#000000;fillColor=none;gradientColor=none;" vertex="1" parent="mj4GtjVufNiis1bke-Jx-1">
          <mxGeometry x="815.5" y="287" width="201" height="30" as="geometry"/>
        </mxCell>
        <mxCell id="mj4GtjVufNiis1bke-Jx-67" value="&lt;b&gt;Secure World&lt;/b&gt;" style="text;html=1;strokeColor=none;fillColor=none;align=center;verticalAlign=middle;whiteSpace=wrap;rounded=0;shadow=0;glass=0;comic=0;" vertex="1" parent="mj4GtjVufNiis1bke-Jx-1">
          <mxGeometry x="809" y="227" width="217" height="20" as="geometry"/>
        </mxCell>
        <mxCell id="mj4GtjVufNiis1bke-Jx-70" value="implementazione trustzone" style="ellipse;whiteSpace=wrap;html=1;rounded=0;shadow=0;glass=0;comic=0;strokeColor=#000000;fillColor=none;gradientColor=none;" vertex="1" parent="mj4GtjVufNiis1bke-Jx-1">
          <mxGeometry x="315.5" y="380" width="210" height="30" as="geometry"/>
        </mxCell>
        <mxCell id="mj4GtjVufNiis1bke-Jx-74" value="" style="endArrow=none;html=1;entryX=0.475;entryY=1.006;entryDx=0;entryDy=0;entryPerimeter=0;exitX=0.5;exitY=0;exitDx=0;exitDy=0;startArrow=classic;startFill=1;" edge="1" parent="mj4GtjVufNiis1bke-Jx-1" source="mj4GtjVufNiis1bke-Jx-51" target="mj4GtjVufNiis1bke-Jx-53">
          <mxGeometry width="50" height="50" relative="1" as="geometry">
            <mxPoint x="145" y="394.5" as="sourcePoint"/>
            <mxPoint x="195" y="344.5" as="targetPoint"/>
          </mxGeometry>
        </mxCell>
        <mxCell id="mj4GtjVufNiis1bke-Jx-75" value="" style="endArrow=classic;html=1;exitX=0.5;exitY=1;exitDx=0;exitDy=0;entryX=0.675;entryY=0.044;entryDx=0;entryDy=0;entryPerimeter=0;startArrow=none;startFill=0;endFill=1;" edge="1" parent="mj4GtjVufNiis1bke-Jx-1" source="mj4GtjVufNiis1bke-Jx-58" target="mj4GtjVufNiis1bke-Jx-51">
          <mxGeometry width="50" height="50" relative="1" as="geometry">
            <mxPoint x="205" y="389.9999999999999" as="sourcePoint"/>
            <mxPoint x="184.9749999999999" y="327.17999999999995" as="targetPoint"/>
          </mxGeometry>
        </mxCell>
        <mxCell id="mj4GtjVufNiis1bke-Jx-76" value="" style="endArrow=none;html=1;entryX=0.877;entryY=0.997;entryDx=0;entryDy=0;entryPerimeter=0;exitX=0.398;exitY=0.017;exitDx=0;exitDy=0;exitPerimeter=0;" edge="1" parent="mj4GtjVufNiis1bke-Jx-1" source="mj4GtjVufNiis1bke-Jx-70" target="mj4GtjVufNiis1bke-Jx-7">
          <mxGeometry width="50" height="50" relative="1" as="geometry">
            <mxPoint x="205" y="389.9999999999999" as="sourcePoint"/>
            <mxPoint x="184.9749999999999" y="327.17999999999995" as="targetPoint"/>
          </mxGeometry>
        </mxCell>
        <mxCell id="mj4GtjVufNiis1bke-Jx-77" value="" style="endArrow=none;html=1;entryX=0.052;entryY=1.005;entryDx=0;entryDy=0;entryPerimeter=0;exitX=0.5;exitY=0;exitDx=0;exitDy=0;" edge="1" parent="mj4GtjVufNiis1bke-Jx-1" source="mj4GtjVufNiis1bke-Jx-70" target="mj4GtjVufNiis1bke-Jx-56">
          <mxGeometry width="50" height="50" relative="1" as="geometry">
            <mxPoint x="409.0799999999999" y="390.51" as="sourcePoint"/>
            <mxPoint x="273.30899999999997" y="329.70000000000005" as="targetPoint"/>
          </mxGeometry>
        </mxCell>
        <mxCell id="mj4GtjVufNiis1bke-Jx-80" value="&lt;div style=&quot;font-size: 16px&quot; align=&quot;center&quot;&gt;&lt;font style=&quot;font-size: 16px&quot;&gt;Monitor&lt;/font&gt;&lt;/div&gt;" style="text;html=1;strokeWidth=5;align=center;" vertex="1" parent="mj4GtjVufNiis1bke-Jx-1">
          <mxGeometry x="266.5" y="453.5" width="70" height="30" as="geometry"/>
        </mxCell>
        <mxCell id="mj4GtjVufNiis1bke-Jx-81" value="world switch" style="ellipse;whiteSpace=wrap;html=1;rounded=0;shadow=0;glass=0;comic=0;strokeColor=#000000;strokeWidth=1;fillColor=none;gradientColor=none;" vertex="1" parent="mj4GtjVufNiis1bke-Jx-1">
          <mxGeometry x="150" y="480" width="300" height="20" as="geometry"/>
        </mxCell>
        <mxCell id="mj4GtjVufNiis1bke-Jx-82" value="" style="endArrow=none;html=1;entryX=0.5;entryY=1;entryDx=0;entryDy=0;exitX=1;exitY=0;exitDx=0;exitDy=0;" edge="1" parent="mj4GtjVufNiis1bke-Jx-1" source="mj4GtjVufNiis1bke-Jx-81" target="mj4GtjVufNiis1bke-Jx-70">
          <mxGeometry width="50" height="50" relative="1" as="geometry">
            <mxPoint x="20" y="910" as="sourcePoint"/>
            <mxPoint x="70" y="860" as="targetPoint"/>
          </mxGeometry>
        </mxCell>
        <mxCell id="mj4GtjVufNiis1bke-Jx-84" value="" style="endArrow=classic;html=1;exitX=0.5;exitY=0;exitDx=0;exitDy=0;entryX=0;entryY=1;entryDx=0;entryDy=0;startArrow=none;startFill=0;endFill=1;" edge="1" parent="mj4GtjVufNiis1bke-Jx-1" source="mj4GtjVufNiis1bke-Jx-10" target="mj4GtjVufNiis1bke-Jx-52">
          <mxGeometry width="50" height="50" relative="1" as="geometry">
            <mxPoint x="504" y="560" as="sourcePoint"/>
            <mxPoint x="437.58061984230585" y="419.9658555757826" as="targetPoint"/>
            <Array as="points">
              <mxPoint x="50" y="480"/>
              <mxPoint x="50" y="330"/>
            </Array>
          </mxGeometry>
        </mxCell>
        <mxCell id="mj4GtjVufNiis1bke-Jx-85" value="" style="endArrow=none;html=1;entryX=0.5;entryY=1;entryDx=0;entryDy=0;exitX=0;exitY=0.25;exitDx=0;exitDy=0;startArrow=classic;startFill=1;" edge="1" parent="mj4GtjVufNiis1bke-Jx-1" source="mj4GtjVufNiis1bke-Jx-14" target="mj4GtjVufNiis1bke-Jx-9">
          <mxGeometry width="50" height="50" relative="1" as="geometry">
            <mxPoint x="20" y="910" as="sourcePoint"/>
            <mxPoint x="70" y="860" as="targetPoint"/>
          </mxGeometry>
        </mxCell>
        <mxCell id="mj4GtjVufNiis1bke-Jx-86" value="" style="endArrow=none;html=1;entryX=0.75;entryY=1;entryDx=0;entryDy=0;exitX=1;exitY=0.5;exitDx=0;exitDy=0;endFill=0;startArrow=classic;startFill=1;" edge="1" parent="mj4GtjVufNiis1bke-Jx-1" source="mj4GtjVufNiis1bke-Jx-81" target="mj4GtjVufNiis1bke-Jx-56">
          <mxGeometry width="50" height="50" relative="1" as="geometry">
            <mxPoint x="20" y="910" as="sourcePoint"/>
            <mxPoint x="70" y="860" as="targetPoint"/>
          </mxGeometry>
        </mxCell>
        <mxCell id="mj4GtjVufNiis1bke-Jx-87" value="" style="endArrow=none;html=1;entryX=0;entryY=0.25;entryDx=0;entryDy=0;" edge="1" parent="mj4GtjVufNiis1bke-Jx-1" target="mj4GtjVufNiis1bke-Jx-11">
          <mxGeometry width="50" height="50" relative="1" as="geometry">
            <mxPoint x="100" y="530" as="sourcePoint"/>
            <mxPoint x="70" y="860" as="targetPoint"/>
          </mxGeometry>
        </mxCell>
        <mxCell id="mj4GtjVufNiis1bke-Jx-88" value="" style="endArrow=none;html=1;exitX=1;exitY=0.5;exitDx=0;exitDy=0;entryX=0.75;entryY=0;entryDx=0;entryDy=0;endFill=0;startArrow=classic;startFill=1;" edge="1" parent="mj4GtjVufNiis1bke-Jx-1" source="mj4GtjVufNiis1bke-Jx-57" target="mj4GtjVufNiis1bke-Jx-11">
          <mxGeometry width="50" height="50" relative="1" as="geometry">
            <mxPoint x="560.1132064431085" y="270.1330190335336" as="sourcePoint"/>
            <mxPoint x="570.0000000000002" y="542.5" as="targetPoint"/>
            <Array as="points">
              <mxPoint x="550" y="322"/>
              <mxPoint x="550" y="400"/>
              <mxPoint x="550" y="480"/>
            </Array>
          </mxGeometry>
        </mxCell>
        <mxCell id="mj4GtjVufNiis1bke-Jx-89" value="" style="endArrow=none;html=1;exitX=1;exitY=0.5;exitDx=0;exitDy=0;" edge="1" parent="mj4GtjVufNiis1bke-Jx-1">
          <mxGeometry width="50" height="50" relative="1" as="geometry">
            <mxPoint x="157.00000000000023" y="580" as="sourcePoint"/>
            <mxPoint x="529" y="520" as="targetPoint"/>
          </mxGeometry>
        </mxCell>
        <mxCell id="mj4GtjVufNiis1bke-Jx-92" value="&lt;p style=&quot;line-height: 110% ; font-size: 16px&quot;&gt;&lt;font style=&quot;font-size: 16px&quot;&gt;TrustZone API&lt;/font&gt;&lt;/p&gt;&lt;div&gt;&lt;br&gt;&lt;/div&gt;&lt;div&gt;&lt;br&gt;&lt;/div&gt;" style="rounded=0;whiteSpace=wrap;html=1;fillColor=none;strokeWidth=2;rotation=0;labelPosition=center;verticalLabelPosition=middle;align=center;verticalAlign=middle;spacingTop=-5;fontSize=16;" vertex="1" parent="mj4GtjVufNiis1bke-Jx-1">
          <mxGeometry x="577" y="362" width="450" height="58" as="geometry"/>
        </mxCell>
        <mxCell id="mj4GtjVufNiis1bke-Jx-93" value="comunicazione interprocessi" style="ellipse;whiteSpace=wrap;html=1;rounded=0;shadow=0;glass=0;comic=0;strokeColor=#000000;fillColor=none;gradientColor=none;" vertex="1" parent="mj4GtjVufNiis1bke-Jx-1">
          <mxGeometry x="587" y="382" width="210" height="30" as="geometry"/>
        </mxCell>
        <mxCell id="mj4GtjVufNiis1bke-Jx-94" value="implementazione trustzone" style="ellipse;whiteSpace=wrap;html=1;rounded=0;shadow=0;glass=0;comic=0;strokeColor=#000000;fillColor=none;gradientColor=none;" vertex="1" parent="mj4GtjVufNiis1bke-Jx-1">
          <mxGeometry x="812.5" y="382" width="210" height="30" as="geometry"/>
        </mxCell>
        <mxCell id="mj4GtjVufNiis1bke-Jx-95" value="" style="endArrow=none;html=1;entryX=0;entryY=1;entryDx=0;entryDy=0;exitX=0;exitY=1;exitDx=0;exitDy=0;strokeColor=#0000FF;startArrow=classic;startFill=1;" edge="1" parent="mj4GtjVufNiis1bke-Jx-1" source="mj4GtjVufNiis1bke-Jx-93" target="mj4GtjVufNiis1bke-Jx-51">
          <mxGeometry width="50" height="50" relative="1" as="geometry">
            <mxPoint x="20" y="910" as="sourcePoint"/>
            <mxPoint x="70" y="860" as="targetPoint"/>
            <Array as="points">
              <mxPoint x="616" y="450"/>
              <mxPoint x="119" y="450"/>
            </Array>
          </mxGeometry>
        </mxCell>
        <mxCell id="mj4GtjVufNiis1bke-Jx-96" value="" style="endArrow=classic;html=1;entryX=0;entryY=1;entryDx=0;entryDy=0;exitX=0.5;exitY=0;exitDx=0;exitDy=0;endFill=1;" edge="1" parent="mj4GtjVufNiis1bke-Jx-1" source="mj4GtjVufNiis1bke-Jx-93" target="mj4GtjVufNiis1bke-Jx-66">
          <mxGeometry width="50" height="50" relative="1" as="geometry">
            <mxPoint x="899" y="383" as="sourcePoint"/>
            <mxPoint x="878.9749999999999" y="320.18000000000006" as="targetPoint"/>
          </mxGeometry>
        </mxCell>
        <mxCell id="Qa-RzntiTyk9rga_P6mm-0" value="" style="endArrow=none;html=1;strokeColor=#000000;entryX=0.5;entryY=1;entryDx=0;entryDy=0;exitX=0.5;exitY=0;exitDx=0;exitDy=0;startArrow=classic;startFill=1;" edge="1" parent="mj4GtjVufNiis1bke-Jx-1" source="mj4GtjVufNiis1bke-Jx-94" target="mj4GtjVufNiis1bke-Jx-61">
          <mxGeometry width="50" height="50" relative="1" as="geometry">
            <mxPoint x="20" y="910" as="sourcePoint"/>
            <mxPoint x="70" y="860" as="targetPoint"/>
          </mxGeometry>
        </mxCell>
        <mxCell id="Qa-RzntiTyk9rga_P6mm-3" value="" style="endArrow=classic;html=1;strokeColor=#000000;exitX=0.5;exitY=1;exitDx=0;exitDy=0;entryX=0.5;entryY=1;entryDx=0;entryDy=0;" edge="1" parent="mj4GtjVufNiis1bke-Jx-1" source="mj4GtjVufNiis1bke-Jx-94" target="mj4GtjVufNiis1bke-Jx-93">
          <mxGeometry width="50" height="50" relative="1" as="geometry">
            <mxPoint x="20" y="910" as="sourcePoint"/>
            <mxPoint x="70" y="860" as="targetPoint"/>
            <Array as="points">
              <mxPoint x="917" y="440"/>
              <mxPoint x="692" y="440"/>
            </Array>
          </mxGeometry>
        </mxCell>
        <mxCell id="Qa-RzntiTyk9rga_P6mm-4" value="" style="endArrow=classic;html=1;strokeColor=#FF0000;exitX=0.5;exitY=1;exitDx=0;exitDy=0;entryX=0.5;entryY=1;entryDx=0;entryDy=0;" edge="1" parent="mj4GtjVufNiis1bke-Jx-1" target="mj4GtjVufNiis1bke-Jx-51">
          <mxGeometry width="50" height="50" relative="1" as="geometry">
            <mxPoint x="679.9999999999995" y="412" as="sourcePoint"/>
            <mxPoint x="454.5" y="412" as="targetPoint"/>
            <Array as="points">
              <mxPoint x="679.5" y="440"/>
              <mxPoint x="195" y="440"/>
            </Array>
          </mxGeometry>
        </mxCell>
        <mxCell id="Qa-RzntiTyk9rga_P6mm-6" value="" style="rounded=0;whiteSpace=wrap;html=1;strokeColor=#000000;strokeWidth=2;fillColor=none;fontSize=16;" vertex="1" parent="mj4GtjVufNiis1bke-Jx-1">
          <mxGeometry x="572.5" y="458.5" width="450" height="47" as="geometry"/>
        </mxCell>
        <mxCell id="Qa-RzntiTyk9rga_P6mm-7" value="&lt;div style=&quot;font-size: 16px&quot; align=&quot;center&quot;&gt;&lt;font style=&quot;font-size: 16px&quot;&gt;Monitor&lt;/font&gt;&lt;/div&gt;" style="text;html=1;strokeWidth=5;align=center;" vertex="1" parent="mj4GtjVufNiis1bke-Jx-1">
          <mxGeometry x="758" y="452" width="70" height="30" as="geometry"/>
        </mxCell>
        <mxCell id="Qa-RzntiTyk9rga_P6mm-8" value="world switch" style="ellipse;whiteSpace=wrap;html=1;rounded=0;shadow=0;glass=0;comic=0;strokeColor=#000000;strokeWidth=1;fillColor=none;gradientColor=none;" vertex="1" parent="mj4GtjVufNiis1bke-Jx-1">
          <mxGeometry x="641.5" y="478.5" width="300" height="20" as="geometry"/>
        </mxCell>
      </root>
    </mxGraphModel>
  </diagram>
</mxfile>
